<svg width="2155" height="2165" xmlns="http://www.w3.org/2000/svg" xmlns:xlink="http://www.w3.org/1999/xlink" xml:space="preserve" overflow="hidden"><defs><clipPath id="clip0"><rect x="160" y="705" width="2155" height="2165"/></clipPath></defs><g clip-path="url(#clip0)" transform="translate(-160 -705)"><rect x="297" y="840" width="133" height="136" fill="#15FF7F"/><rect x="161" y="705" width="135" height="135" fill="#15FF7F"/><rect x="294" y="705" width="135" height="135" fill="#00C459"/><rect x="160" y="840" width="135" height="136" fill="#00C459"/><path d="M363.5 734.316C342.888 734.316 326.178 751.026 326.178 771.638 326.178 792.25 342.888 808.96 363.5 808.96 384.112 808.96 400.822 792.25 400.822 771.638 400.822 751.026 384.112 734.316 363.5 734.316ZM296 705 431 705 431 840 296 840Z" fill="#00F66F" fill-rule="evenodd"/><path d="M228 734.316C207.235 734.316 190.401 751.026 190.401 771.638 190.401 792.25 207.235 808.96 228 808.96 248.765 808.96 265.598 792.25 265.598 771.638 265.598 751.026 248.765 734.316 228 734.316ZM160 705 296 705 296 840 160 840Z" fill="#00CC5C" fill-rule="evenodd"/><path d="M363.5 869.533C342.888 869.533 326.178 886.366 326.178 907.131 326.178 927.896 342.888 944.73 363.5 944.73 384.112 944.73 400.822 927.896 400.822 907.131 400.822 886.366 384.112 869.533 363.5 869.533ZM296 840 431 840 431 976 296 976Z" fill="#00CC5C" fill-rule="evenodd"/><path d="M228.5 869.533C207.888 869.533 191.178 886.366 191.178 907.131 191.178 927.896 207.888 944.73 228.5 944.73 249.112 944.73 265.822 927.896 265.822 907.131 265.822 886.366 249.112 869.533 228.5 869.533ZM161 840 296 840 296 976 161 976Z" fill="#00F66F" fill-rule="evenodd"/><rect x="567" y="840" width="134" height="136" fill="#15FF7F"/><rect x="431" y="705" width="135" height="135" fill="#15FF7F"/><rect x="565" y="705" width="135" height="135" fill="#00C459"/><rect x="431" y="840" width="135" height="136" fill="#00C459"/><path d="M633.5 734.316C612.888 734.316 596.178 751.026 596.178 771.638 596.178 792.25 612.888 808.96 633.5 808.96 654.112 808.96 670.822 792.25 670.822 771.638 670.822 751.026 654.112 734.316 633.5 734.316ZM566 705 701 705 701 840 566 840Z" fill="#00F66F" fill-rule="evenodd"/><path d="M498.5 734.316C477.888 734.316 461.178 751.026 461.178 771.638 461.178 792.25 477.888 808.96 498.5 808.96 519.112 808.96 535.822 792.25 535.822 771.638 535.822 751.026 519.112 734.316 498.5 734.316ZM431 705 566 705 566 840 431 840Z" fill="#00CC5C" fill-rule="evenodd"/><path d="M633.5 869.533C612.888 869.533 596.178 886.366 596.178 907.131 596.178 927.896 612.888 944.73 633.5 944.73 654.112 944.73 670.822 927.896 670.822 907.131 670.822 886.366 654.112 869.533 633.5 869.533ZM566 840 701 840 701 976 566 976Z" fill="#00CC5C" fill-rule="evenodd"/><path d="M498.5 869.533C477.888 869.533 461.178 886.366 461.178 907.131 461.178 927.896 477.888 944.73 498.5 944.73 519.112 944.73 535.822 927.896 535.822 907.131 535.822 886.366 519.112 869.533 498.5 869.533ZM431 840 566 840 566 976 431 976Z" fill="#00F66F" fill-rule="evenodd"/><rect x="834" y="840" width="134" height="136" fill="#15FF7F"/><rect x="698" y="705" width="135" height="135" fill="#15FF7F"/><rect x="832" y="705" width="135" height="135" fill="#00C459"/><rect x="698" y="840" width="135" height="136" fill="#00C459"/><path d="M900.5 734.316C879.888 734.316 863.178 751.026 863.178 771.638 863.178 792.25 879.888 808.96 900.5 808.96 921.112 808.96 937.822 792.25 937.822 771.638 937.822 751.026 921.112 734.316 900.5 734.316ZM833 705 968 705 968 840 833 840Z" fill="#00F66F" fill-rule="evenodd"/><path d="M765.5 734.316C744.888 734.316 728.178 751.026 728.178 771.638 728.178 792.25 744.888 808.96 765.5 808.96 786.112 808.96 802.822 792.25 802.822 771.638 802.822 751.026 786.112 734.316 765.5 734.316ZM698 705 833 705 833 840 698 840Z" fill="#00CC5C" fill-rule="evenodd"/><path d="M900.5 869.533C879.888 869.533 863.178 886.366 863.178 907.131 863.178 927.896 879.888 944.73 900.5 944.73 921.112 944.73 937.822 927.896 937.822 907.131 937.822 886.366 921.112 869.533 900.5 869.533ZM833 840 968 840 968 976 833 976Z" fill="#00CC5C" fill-rule="evenodd"/><path d="M765.5 869.533C744.888 869.533 728.178 886.366 728.178 907.131 728.178 927.896 744.888 944.73 765.5 944.73 786.112 944.73 802.822 927.896 802.822 907.131 802.822 886.366 786.112 869.533 765.5 869.533ZM698 840 833 840 833 976 698 976Z" fill="#00F66F" fill-rule="evenodd"/><rect x="1104" y="840" width="134" height="136" fill="#15FF7F"/><rect x="968" y="705" width="135" height="135" fill="#15FF7F"/><rect x="1102" y="705" width="135" height="135" fill="#00C459"/><rect x="968" y="840" width="135" height="136" fill="#00C459"/><path d="M1170.5 734.316C1149.89 734.316 1133.18 751.026 1133.18 771.638 1133.18 792.25 1149.89 808.96 1170.5 808.96 1191.11 808.96 1207.82 792.25 1207.82 771.638 1207.82 751.026 1191.11 734.316 1170.5 734.316ZM1103 705 1238 705 1238 840 1103 840Z" fill="#00F66F" fill-rule="evenodd"/><path d="M1035.5 734.316C1014.89 734.316 998.178 751.026 998.178 771.638 998.178 792.25 1014.89 808.96 1035.5 808.96 1056.11 808.96 1072.82 792.25 1072.82 771.638 1072.82 751.026 1056.11 734.316 1035.5 734.316ZM968 705 1103 705 1103 840 968 840Z" fill="#00CC5C" fill-rule="evenodd"/><path d="M1171 869.533C1150.23 869.533 1133.4 886.366 1133.4 907.131 1133.4 927.896 1150.23 944.73 1171 944.73 1191.77 944.73 1208.6 927.896 1208.6 907.131 1208.6 886.366 1191.77 869.533 1171 869.533ZM1103 840 1239 840 1239 976 1103 976Z" fill="#00CC5C" fill-rule="evenodd"/><path d="M1036 869.533C1015.23 869.533 998.401 886.366 998.401 907.131 998.401 927.896 1015.23 944.73 1036 944.73 1056.77 944.73 1073.6 927.896 1073.6 907.131 1073.6 886.366 1056.77 869.533 1036 869.533ZM968 840 1104 840 1104 976 968 976Z" fill="#00F66F" fill-rule="evenodd"/><rect x="297" y="1111" width="134" height="135" fill="#15FF7F"/><rect x="161" y="976" width="135" height="135" fill="#15FF7F"/><rect x="295" y="976" width="135" height="135" fill="#00C459"/><rect x="161" y="1111" width="135" height="135" fill="#00C459"/><path d="M363.5 1005.32C342.888 1005.32 326.178 1022.03 326.178 1042.64 326.178 1063.25 342.888 1079.96 363.5 1079.96 384.112 1079.96 400.822 1063.25 400.822 1042.64 400.822 1022.03 384.112 1005.32 363.5 1005.32ZM296 976 431 976 431 1111 296 1111Z" fill="#00F66F" fill-rule="evenodd"/><path d="M228.5 1005.32C207.888 1005.32 191.178 1022.03 191.178 1042.64 191.178 1063.25 207.888 1079.96 228.5 1079.96 249.112 1079.96 265.822 1063.25 265.822 1042.64 265.822 1022.03 249.112 1005.32 228.5 1005.32ZM161 976 296 976 296 1111 161 1111Z" fill="#00CC5C" fill-rule="evenodd"/><path d="M363.5 1140.32C342.888 1140.32 326.178 1157.03 326.178 1177.64 326.178 1198.25 342.888 1214.96 363.5 1214.96 384.112 1214.96 400.822 1198.25 400.822 1177.64 400.822 1157.03 384.112 1140.32 363.5 1140.32ZM296 1111 431 1111 431 1246 296 1246Z" fill="#00CC5C" fill-rule="evenodd"/><path d="M228.5 1140.32C207.888 1140.32 191.178 1157.03 191.178 1177.64 191.178 1198.25 207.888 1214.96 228.5 1214.96 249.112 1214.96 265.822 1198.25 265.822 1177.64 265.822 1157.03 249.112 1140.32 228.5 1140.32ZM161 1111 296 1111 296 1246 161 1246Z" fill="#00F66F" fill-rule="evenodd"/><rect x="567" y="1111" width="134" height="135" fill="#15FF7F"/><rect x="431" y="976" width="135" height="135" fill="#15FF7F"/><rect x="565" y="976" width="135" height="135" fill="#00C459"/><rect x="431" y="1111" width="135" height="135" fill="#00C459"/><path d="M633.5 1005.32C612.888 1005.32 596.178 1022.03 596.178 1042.64 596.178 1063.25 612.888 1079.96 633.5 1079.96 654.112 1079.96 670.822 1063.25 670.822 1042.64 670.822 1022.03 654.112 1005.32 633.5 1005.32ZM566 976 701 976 701 1111 566 1111Z" fill="#00F66F" fill-rule="evenodd"/><path d="M498.5 1005.32C477.888 1005.32 461.178 1022.03 461.178 1042.64 461.178 1063.25 477.888 1079.96 498.5 1079.96 519.112 1079.96 535.822 1063.25 535.822 1042.64 535.822 1022.03 519.112 1005.32 498.5 1005.32ZM431 976 566 976 566 1111 431 1111Z" fill="#00CC5C" fill-rule="evenodd"/><path d="M633.5 1140.32C612.888 1140.32 596.178 1157.03 596.178 1177.64 596.178 1198.25 612.888 1214.96 633.5 1214.96 654.112 1214.96 670.822 1198.25 670.822 1177.64 670.822 1157.03 654.112 1140.32 633.5 1140.32ZM566 1111 701 1111 701 1246 566 1246Z" fill="#00CC5C" fill-rule="evenodd"/><path d="M498.5 1140.32C477.888 1140.32 461.178 1157.03 461.178 1177.64 461.178 1198.25 477.888 1214.96 498.5 1214.96 519.112 1214.96 535.822 1198.25 535.822 1177.64 535.822 1157.03 519.112 1140.32 498.5 1140.32ZM431 1111 566 1111 566 1246 431 1246Z" fill="#00F66F" fill-rule="evenodd"/><rect x="834" y="1111" width="134" height="135" fill="#15FF7F"/><rect x="698" y="976" width="135" height="135" fill="#15FF7F"/><rect x="832" y="976" width="135" height="135" fill="#00C459"/><rect x="698" y="1111" width="135" height="135" fill="#00C459"/><path d="M900.5 1005.32C879.888 1005.32 863.178 1022.03 863.178 1042.64 863.178 1063.25 879.888 1079.96 900.5 1079.96 921.112 1079.96 937.822 1063.25 937.822 1042.64 937.822 1022.03 921.112 1005.32 900.5 1005.32ZM833 976 968 976 968 1111 833 1111Z" fill="#00F66F" fill-rule="evenodd"/><path d="M765.5 1005.32C744.888 1005.32 728.178 1022.03 728.178 1042.64 728.178 1063.25 744.888 1079.96 765.5 1079.96 786.112 1079.96 802.822 1063.25 802.822 1042.64 802.822 1022.03 786.112 1005.32 765.5 1005.32ZM698 976 833 976 833 1111 698 1111Z" fill="#00CC5C" fill-rule="evenodd"/><path d="M900.5 1140.32C879.888 1140.32 863.178 1157.03 863.178 1177.64 863.178 1198.25 879.888 1214.96 900.5 1214.96 921.112 1214.96 937.822 1198.25 937.822 1177.64 937.822 1157.03 921.112 1140.32 900.5 1140.32ZM833 1111 968 1111 968 1246 833 1246Z" fill="#00CC5C" fill-rule="evenodd"/><path d="M765.5 1140.32C744.888 1140.32 728.178 1157.03 728.178 1177.64 728.178 1198.25 744.888 1214.96 765.5 1214.96 786.112 1214.96 802.822 1198.25 802.822 1177.64 802.822 1157.03 786.112 1140.32 765.5 1140.32ZM698 1111 833 1111 833 1246 698 1246Z" fill="#00F66F" fill-rule="evenodd"/><rect x="1104" y="1111" width="134" height="135" fill="#15FF7F"/><rect x="968" y="976" width="135" height="135" fill="#15FF7F"/><rect x="1102" y="976" width="135" height="135" fill="#00C459"/><rect x="968" y="1111" width="135" height="135" fill="#00C459"/><path d="M1171 1005.32C1150.54 1005.32 1133.95 1022.03 1133.95 1042.64 1133.95 1063.25 1150.54 1079.96 1171 1079.96 1191.46 1079.96 1208.05 1063.25 1208.05 1042.64 1208.05 1022.03 1191.46 1005.32 1171 1005.32ZM1104 976 1238 976 1238 1111 1104 1111Z" fill="#00F66F" fill-rule="evenodd"/><path d="M1035.5 1005.32C1014.89 1005.32 998.178 1022.03 998.178 1042.64 998.178 1063.25 1014.89 1079.96 1035.5 1079.96 1056.11 1079.96 1072.82 1063.25 1072.82 1042.64 1072.82 1022.03 1056.11 1005.32 1035.5 1005.32ZM968 976 1103 976 1103 1111 968 1111Z" fill="#00CC5C" fill-rule="evenodd"/><path d="M1171 1140.32C1150.23 1140.32 1133.4 1157.03 1133.4 1177.64 1133.4 1198.25 1150.23 1214.96 1171 1214.96 1191.77 1214.96 1208.6 1198.25 1208.6 1177.64 1208.6 1157.03 1191.77 1140.32 1171 1140.32ZM1103 1111 1239 1111 1239 1246 1103 1246Z" fill="#00CC5C" fill-rule="evenodd"/><path d="M1036 1140.32C1015.23 1140.32 998.401 1157.03 998.401 1177.64 998.401 1198.25 1015.23 1214.96 1036 1214.96 1056.77 1214.96 1073.6 1198.25 1073.6 1177.64 1073.6 1157.03 1056.77 1140.32 1036 1140.32ZM968 1111 1104 1111 1104 1246 968 1246Z" fill="#00F66F" fill-rule="evenodd"/><rect x="297" y="1382" width="134" height="135" fill="#15FF7F"/><rect x="161" y="1246" width="135" height="136" fill="#15FF7F"/><rect x="295" y="1246" width="135" height="136" fill="#00C459"/><rect x="161" y="1382" width="135" height="135" fill="#00C459"/><path d="M363.5 1275.53C342.888 1275.53 326.178 1292.37 326.178 1313.13 326.178 1333.9 342.888 1350.73 363.5 1350.73 384.112 1350.73 400.822 1333.9 400.822 1313.13 400.822 1292.37 384.112 1275.53 363.5 1275.53ZM296 1246 431 1246 431 1382 296 1382Z" fill="#00F66F" fill-rule="evenodd"/><path d="M228.5 1275.53C207.888 1275.53 191.178 1292.37 191.178 1313.13 191.178 1333.9 207.888 1350.73 228.5 1350.73 249.112 1350.73 265.822 1333.9 265.822 1313.13 265.822 1292.37 249.112 1275.53 228.5 1275.53ZM161 1246 296 1246 296 1382 161 1382Z" fill="#00CC5C" fill-rule="evenodd"/><path d="M363.5 1411.32C342.888 1411.32 326.178 1428.03 326.178 1448.64 326.178 1469.25 342.888 1485.96 363.5 1485.96 384.112 1485.96 400.822 1469.25 400.822 1448.64 400.822 1428.03 384.112 1411.32 363.5 1411.32ZM296 1382 431 1382 431 1517 296 1517Z" fill="#00CC5C" fill-rule="evenodd"/><path d="M228.5 1411.32C207.888 1411.32 191.178 1428.03 191.178 1448.64 191.178 1469.25 207.888 1485.96 228.5 1485.96 249.112 1485.96 265.822 1469.25 265.822 1448.64 265.822 1428.03 249.112 1411.32 228.5 1411.32ZM161 1382 296 1382 296 1517 161 1517Z" fill="#00F66F" fill-rule="evenodd"/><rect x="567" y="1382" width="134" height="135" fill="#15FF7F"/><rect x="431" y="1246" width="135" height="136" fill="#15FF7F"/><rect x="565" y="1246" width="135" height="136" fill="#00C459"/><rect x="431" y="1382" width="135" height="135" fill="#00C459"/><path d="M633.5 1275.53C612.888 1275.53 596.178 1292.37 596.178 1313.13 596.178 1333.9 612.888 1350.73 633.5 1350.73 654.112 1350.73 670.822 1333.9 670.822 1313.13 670.822 1292.37 654.112 1275.53 633.5 1275.53ZM566 1246 701 1246 701 1382 566 1382Z" fill="#00F66F" fill-rule="evenodd"/><path d="M498.5 1275.53C477.888 1275.53 461.178 1292.37 461.178 1313.13 461.178 1333.9 477.888 1350.73 498.5 1350.73 519.112 1350.73 535.822 1333.9 535.822 1313.13 535.822 1292.37 519.112 1275.53 498.5 1275.53ZM431 1246 566 1246 566 1382 431 1382Z" fill="#00CC5C" fill-rule="evenodd"/><path d="M633.5 1411.32C612.888 1411.32 596.178 1428.03 596.178 1448.64 596.178 1469.25 612.888 1485.96 633.5 1485.96 654.112 1485.96 670.822 1469.25 670.822 1448.64 670.822 1428.03 654.112 1411.32 633.5 1411.32ZM566 1382 701 1382 701 1517 566 1517Z" fill="#00CC5C" fill-rule="evenodd"/><path d="M498.5 1411.32C477.888 1411.32 461.178 1428.03 461.178 1448.64 461.178 1469.25 477.888 1485.96 498.5 1485.96 519.112 1485.96 535.822 1469.25 535.822 1448.64 535.822 1428.03 519.112 1411.32 498.5 1411.32ZM431 1382 566 1382 566 1517 431 1517Z" fill="#00F66F" fill-rule="evenodd"/><rect x="834" y="1382" width="134" height="135" fill="#15FF7F"/><rect x="698" y="1246" width="135" height="136" fill="#15FF7F"/><rect x="832" y="1246" width="135" height="136" fill="#00C459"/><rect x="698" y="1382" width="135" height="135" fill="#00C459"/><path d="M900.5 1275.53C879.888 1275.53 863.178 1292.37 863.178 1313.13 863.178 1333.9 879.888 1350.73 900.5 1350.73 921.112 1350.73 937.822 1333.9 937.822 1313.13 937.822 1292.37 921.112 1275.53 900.5 1275.53ZM833 1246 968 1246 968 1382 833 1382Z" fill="#00F66F" fill-rule="evenodd"/><path d="M765.5 1275.53C744.888 1275.53 728.178 1292.37 728.178 1313.13 728.178 1333.9 744.888 1350.73 765.5 1350.73 786.112 1350.73 802.822 1333.9 802.822 1313.13 802.822 1292.37 786.112 1275.53 765.5 1275.53ZM698 1246 833 1246 833 1382 698 1382Z" fill="#00CC5C" fill-rule="evenodd"/><path d="M900.5 1411.32C879.888 1411.32 863.178 1428.03 863.178 1448.64 863.178 1469.25 879.888 1485.96 900.5 1485.96 921.112 1485.96 937.822 1469.25 937.822 1448.64 937.822 1428.03 921.112 1411.32 900.5 1411.32ZM833 1382 968 1382 968 1517 833 1517Z" fill="#00CC5C" fill-rule="evenodd"/><path d="M765.5 1411.32C744.888 1411.32 728.178 1428.03 728.178 1448.64 728.178 1469.25 744.888 1485.96 765.5 1485.96 786.112 1485.96 802.822 1469.25 802.822 1448.64 802.822 1428.03 786.112 1411.32 765.5 1411.32ZM698 1382 833 1382 833 1517 698 1517Z" fill="#00F66F" fill-rule="evenodd"/><rect x="1104" y="1382" width="134" height="135" fill="#15FF7F"/><rect x="968" y="1246" width="135" height="136" fill="#15FF7F"/><rect x="1102" y="1246" width="135" height="136" fill="#00C459"/><rect x="968" y="1382" width="135" height="135" fill="#00C459"/><path d="M1171 1275.53C1150.54 1275.53 1133.95 1292.37 1133.95 1313.13 1133.95 1333.9 1150.54 1350.73 1171 1350.73 1191.46 1350.73 1208.05 1333.9 1208.05 1313.13 1208.05 1292.37 1191.46 1275.53 1171 1275.53ZM1104 1246 1238 1246 1238 1382 1104 1382Z" fill="#00F66F" fill-rule="evenodd"/><path d="M1035.5 1275.53C1014.89 1275.53 998.178 1292.37 998.178 1313.13 998.178 1333.9 1014.89 1350.73 1035.5 1350.73 1056.11 1350.73 1072.82 1333.9 1072.82 1313.13 1072.82 1292.37 1056.11 1275.53 1035.5 1275.53ZM968 1246 1103 1246 1103 1382 968 1382Z" fill="#00CC5C" fill-rule="evenodd"/><path d="M1171 1411.32C1150.23 1411.32 1133.4 1428.03 1133.4 1448.64 1133.4 1469.25 1150.23 1485.96 1171 1485.96 1191.77 1485.96 1208.6 1469.25 1208.6 1448.64 1208.6 1428.03 1191.77 1411.32 1171 1411.32ZM1103 1382 1239 1382 1239 1517 1103 1517Z" fill="#00CC5C" fill-rule="evenodd"/><path d="M1036 1411.32C1015.23 1411.32 998.401 1428.03 998.401 1448.64 998.401 1469.25 1015.23 1485.96 1036 1485.96 1056.77 1485.96 1073.6 1469.25 1073.6 1448.64 1073.6 1428.03 1056.77 1411.32 1036 1411.32ZM968 1382 1104 1382 1104 1517 968 1517Z" fill="#00F66F" fill-rule="evenodd"/><rect x="297" y="1652" width="134" height="136" fill="#15FF7F"/><rect x="161" y="1517" width="135" height="135" fill="#15FF7F"/><rect x="295" y="1517" width="135" height="135" fill="#00C459"/><rect x="161" y="1652" width="135" height="136" fill="#00C459"/><path d="M363.5 1546.32C342.888 1546.32 326.178 1563.03 326.178 1583.64 326.178 1604.25 342.888 1620.96 363.5 1620.96 384.112 1620.96 400.822 1604.25 400.822 1583.64 400.822 1563.03 384.112 1546.32 363.5 1546.32ZM296 1517 431 1517 431 1652 296 1652Z" fill="#00F66F" fill-rule="evenodd"/><path d="M228.5 1546.32C207.888 1546.32 191.178 1563.03 191.178 1583.64 191.178 1604.25 207.888 1620.96 228.5 1620.96 249.112 1620.96 265.822 1604.25 265.822 1583.64 265.822 1563.03 249.112 1546.32 228.5 1546.32ZM161 1517 296 1517 296 1652 161 1652Z" fill="#00CC5C" fill-rule="evenodd"/><path d="M363.5 1681.53C342.888 1681.53 326.178 1698.37 326.178 1719.13 326.178 1739.9 342.888 1756.73 363.5 1756.73 384.112 1756.73 400.822 1739.9 400.822 1719.13 400.822 1698.37 384.112 1681.53 363.5 1681.53ZM296 1652 431 1652 431 1788 296 1788Z" fill="#00CC5C" fill-rule="evenodd"/><path d="M228.5 1681.53C207.888 1681.53 191.178 1698.37 191.178 1719.13 191.178 1739.9 207.888 1756.73 228.5 1756.73 249.112 1756.73 265.822 1739.9 265.822 1719.13 265.822 1698.37 249.112 1681.53 228.5 1681.53ZM161 1652 296 1652 296 1788 161 1788Z" fill="#00F66F" fill-rule="evenodd"/><rect x="567" y="1652" width="134" height="136" fill="#15FF7F"/><rect x="431" y="1517" width="135" height="135" fill="#15FF7F"/><rect x="565" y="1517" width="135" height="135" fill="#00C459"/><rect x="431" y="1652" width="135" height="136" fill="#00C459"/><path d="M633.5 1546.32C612.888 1546.32 596.178 1563.03 596.178 1583.64 596.178 1604.25 612.888 1620.96 633.5 1620.96 654.112 1620.96 670.822 1604.25 670.822 1583.64 670.822 1563.03 654.112 1546.32 633.5 1546.32ZM566 1517 701 1517 701 1652 566 1652Z" fill="#00F66F" fill-rule="evenodd"/><path d="M498.5 1546.32C477.888 1546.32 461.178 1563.03 461.178 1583.64 461.178 1604.25 477.888 1620.96 498.5 1620.96 519.112 1620.96 535.822 1604.25 535.822 1583.64 535.822 1563.03 519.112 1546.32 498.5 1546.32ZM431 1517 566 1517 566 1652 431 1652Z" fill="#00CC5C" fill-rule="evenodd"/><path d="M633.5 1681.53C612.888 1681.53 596.178 1698.37 596.178 1719.13 596.178 1739.9 612.888 1756.73 633.5 1756.73 654.112 1756.73 670.822 1739.9 670.822 1719.13 670.822 1698.37 654.112 1681.53 633.5 1681.53ZM566 1652 701 1652 701 1788 566 1788Z" fill="#00CC5C" fill-rule="evenodd"/><path d="M498.5 1681.53C477.888 1681.53 461.178 1698.37 461.178 1719.13 461.178 1739.9 477.888 1756.73 498.5 1756.73 519.112 1756.73 535.822 1739.9 535.822 1719.13 535.822 1698.37 519.112 1681.53 498.5 1681.53ZM431 1652 566 1652 566 1788 431 1788Z" fill="#00F66F" fill-rule="evenodd"/><rect x="834" y="1652" width="134" height="136" fill="#15FF7F"/><rect x="698" y="1517" width="135" height="135" fill="#15FF7F"/><rect x="832" y="1517" width="135" height="135" fill="#00C459"/><rect x="698" y="1652" width="135" height="136" fill="#00C459"/><path d="M900.5 1546.32C879.888 1546.32 863.178 1563.03 863.178 1583.64 863.178 1604.25 879.888 1620.96 900.5 1620.96 921.112 1620.96 937.822 1604.25 937.822 1583.64 937.822 1563.03 921.112 1546.32 900.5 1546.32ZM833 1517 968 1517 968 1652 833 1652Z" fill="#00F66F" fill-rule="evenodd"/><path d="M765.5 1546.32C744.888 1546.32 728.178 1563.03 728.178 1583.64 728.178 1604.25 744.888 1620.96 765.5 1620.96 786.112 1620.96 802.822 1604.25 802.822 1583.64 802.822 1563.03 786.112 1546.32 765.5 1546.32ZM698 1517 833 1517 833 1652 698 1652Z" fill="#00CC5C" fill-rule="evenodd"/><path d="M901 1681.53C880.235 1681.53 863.401 1698.37 863.401 1719.13 863.401 1739.9 880.235 1756.73 901 1756.73 921.765 1756.73 938.599 1739.9 938.599 1719.13 938.599 1698.37 921.765 1681.53 901 1681.53ZM833 1652 969 1652 969 1788 833 1788Z" fill="#00CC5C" fill-rule="evenodd"/><path d="M766 1681.53C745.235 1681.53 728.402 1698.37 728.402 1719.13 728.402 1739.9 745.235 1756.73 766 1756.73 786.765 1756.73 803.599 1739.9 803.599 1719.13 803.599 1698.37 786.765 1681.53 766 1681.53ZM698 1652 834 1652 834 1788 698 1788Z" fill="#00F66F" fill-rule="evenodd"/><rect x="1104" y="1652" width="134" height="136" fill="#15FF7F"/><rect x="968" y="1517" width="135" height="135" fill="#15FF7F"/><rect x="1102" y="1517" width="135" height="135" fill="#00C459"/><rect x="968" y="1652" width="135" height="136" fill="#00C459"/><path d="M1171 1546.32C1150.54 1546.32 1133.95 1563.03 1133.95 1583.64 1133.95 1604.25 1150.54 1620.96 1171 1620.96 1191.46 1620.96 1208.05 1604.25 1208.05 1583.64 1208.05 1563.03 1191.46 1546.32 1171 1546.32ZM1104 1517 1238 1517 1238 1652 1104 1652Z" fill="#00F66F" fill-rule="evenodd"/><path d="M1036 1546.32C1015.23 1546.32 998.401 1563.03 998.401 1583.64 998.401 1604.25 1015.23 1620.96 1036 1620.96 1056.77 1620.96 1073.6 1604.25 1073.6 1583.64 1073.6 1563.03 1056.77 1546.32 1036 1546.32ZM968 1517 1104 1517 1104 1652 968 1652Z" fill="#00CC5C" fill-rule="evenodd"/><path d="M1171 1681.53C1150.23 1681.53 1133.4 1698.37 1133.4 1719.13 1133.4 1739.9 1150.23 1756.73 1171 1756.73 1191.77 1756.73 1208.6 1739.9 1208.6 1719.13 1208.6 1698.37 1191.77 1681.53 1171 1681.53ZM1103 1652 1239 1652 1239 1788 1103 1788Z" fill="#00CC5C" fill-rule="evenodd"/><path d="M1036 1681.53C1015.23 1681.53 998.401 1698.37 998.401 1719.13 998.401 1739.9 1015.23 1756.73 1036 1756.73 1056.77 1756.73 1073.6 1739.9 1073.6 1719.13 1073.6 1698.37 1056.77 1681.53 1036 1681.53ZM968 1652 1104 1652 1104 1788 968 1788Z" fill="#00F66F" fill-rule="evenodd"/><rect x="1371" y="840" width="134" height="136" fill="#15FF7F"/><rect x="1235" y="705" width="135" height="135" fill="#15FF7F"/><rect x="1369" y="705" width="135" height="135" fill="#00C459"/><rect x="1235" y="840" width="135" height="136" fill="#00C459"/><path d="M1437.5 734.316C1416.89 734.316 1400.18 751.026 1400.18 771.638 1400.18 792.25 1416.89 808.96 1437.5 808.96 1458.11 808.96 1474.82 792.25 1474.82 771.638 1474.82 751.026 1458.11 734.316 1437.5 734.316ZM1370 705 1505 705 1505 840 1370 840Z" fill="#00F66F" fill-rule="evenodd"/><path d="M1302.5 734.316C1281.89 734.316 1265.18 751.026 1265.18 771.638 1265.18 792.25 1281.89 808.96 1302.5 808.96 1323.11 808.96 1339.82 792.25 1339.82 771.638 1339.82 751.026 1323.11 734.316 1302.5 734.316ZM1235 705 1370 705 1370 840 1235 840Z" fill="#00CC5C" fill-rule="evenodd"/><path d="M1437.5 869.533C1416.89 869.533 1400.18 886.366 1400.18 907.131 1400.18 927.896 1416.89 944.73 1437.5 944.73 1458.11 944.73 1474.82 927.896 1474.82 907.131 1474.82 886.366 1458.11 869.533 1437.5 869.533ZM1370 840 1505 840 1505 976 1370 976Z" fill="#00CC5C" fill-rule="evenodd"/><path d="M1302.5 869.533C1281.89 869.533 1265.18 886.366 1265.18 907.131 1265.18 927.896 1281.89 944.73 1302.5 944.73 1323.11 944.73 1339.82 927.896 1339.82 907.131 1339.82 886.366 1323.11 869.533 1302.5 869.533ZM1235 840 1370 840 1370 976 1235 976Z" fill="#00F66F" fill-rule="evenodd"/><rect x="1641" y="840" width="134" height="136" fill="#15FF7F"/><rect x="1505" y="705" width="135" height="135" fill="#15FF7F"/><rect x="1639" y="705" width="135" height="135" fill="#00C459"/><rect x="1505" y="840" width="135" height="136" fill="#00C459"/><path d="M1707.5 734.316C1686.89 734.316 1670.18 751.026 1670.18 771.638 1670.18 792.25 1686.89 808.96 1707.5 808.96 1728.11 808.96 1744.82 792.25 1744.82 771.638 1744.82 751.026 1728.11 734.316 1707.5 734.316ZM1640 705 1775 705 1775 840 1640 840Z" fill="#00F66F" fill-rule="evenodd"/><path d="M1572.5 734.316C1551.89 734.316 1535.18 751.026 1535.18 771.638 1535.18 792.25 1551.89 808.96 1572.5 808.96 1593.11 808.96 1609.82 792.25 1609.82 771.638 1609.82 751.026 1593.11 734.316 1572.5 734.316ZM1505 705 1640 705 1640 840 1505 840Z" fill="#00CC5C" fill-rule="evenodd"/><path d="M1708 869.533C1687.23 869.533 1670.4 886.366 1670.4 907.131 1670.4 927.896 1687.23 944.73 1708 944.73 1728.77 944.73 1745.6 927.896 1745.6 907.131 1745.6 886.366 1728.77 869.533 1708 869.533ZM1640 840 1776 840 1776 976 1640 976Z" fill="#00CC5C" fill-rule="evenodd"/><path d="M1573 869.533C1552.23 869.533 1535.4 886.366 1535.4 907.131 1535.4 927.896 1552.23 944.73 1573 944.73 1593.77 944.73 1610.6 927.896 1610.6 907.131 1610.6 886.366 1593.77 869.533 1573 869.533ZM1505 840 1641 840 1641 976 1505 976Z" fill="#00F66F" fill-rule="evenodd"/><rect x="1908" y="840" width="134" height="136" fill="#15FF7F"/><rect x="1772" y="705" width="135" height="135" fill="#15FF7F"/><rect x="1906" y="705" width="135" height="135" fill="#00C459"/><rect x="1772" y="840" width="135" height="136" fill="#00C459"/><path d="M1975 734.316C1954.54 734.316 1937.95 751.026 1937.95 771.638 1937.95 792.25 1954.54 808.96 1975 808.96 1995.46 808.96 2012.05 792.25 2012.05 771.638 2012.05 751.026 1995.46 734.316 1975 734.316ZM1908 705 2042 705 2042 840 1908 840Z" fill="#00F66F" fill-rule="evenodd"/><path d="M1839.5 734.316C1818.89 734.316 1802.18 751.026 1802.18 771.638 1802.18 792.25 1818.89 808.96 1839.5 808.96 1860.11 808.96 1876.82 792.25 1876.82 771.638 1876.82 751.026 1860.11 734.316 1839.5 734.316ZM1772 705 1907 705 1907 840 1772 840Z" fill="#00CC5C" fill-rule="evenodd"/><path d="M1975 869.533C1954.23 869.533 1937.4 886.366 1937.4 907.131 1937.4 927.896 1954.23 944.73 1975 944.73 1995.77 944.73 2012.6 927.896 2012.6 907.131 2012.6 886.366 1995.77 869.533 1975 869.533ZM1907 840 2043 840 2043 976 1907 976Z" fill="#00CC5C" fill-rule="evenodd"/><path d="M1840 869.533C1819.23 869.533 1802.4 886.366 1802.4 907.131 1802.4 927.896 1819.23 944.73 1840 944.73 1860.77 944.73 1877.6 927.896 1877.6 907.131 1877.6 886.366 1860.77 869.533 1840 869.533ZM1772 840 1908 840 1908 976 1772 976Z" fill="#00F66F" fill-rule="evenodd"/><rect x="2178" y="840" width="134" height="136" fill="#15FF7F"/><rect x="2043" y="705" width="135" height="135" fill="#15FF7F"/><rect x="2176" y="705" width="135" height="135" fill="#00C459"/><rect x="2042" y="840" width="135" height="136" fill="#00C459"/><path d="M2245.5 734.316C2224.89 734.316 2208.18 751.026 2208.18 771.638 2208.18 792.25 2224.89 808.96 2245.5 808.96 2266.11 808.96 2282.82 792.25 2282.82 771.638 2282.82 751.026 2266.11 734.316 2245.5 734.316ZM2178 705 2313 705 2313 840 2178 840Z" fill="#00F66F" fill-rule="evenodd"/><path d="M2110 734.316C2089.23 734.316 2072.4 751.026 2072.4 771.638 2072.4 792.25 2089.23 808.96 2110 808.96 2130.76 808.96 2147.6 792.25 2147.6 771.638 2147.6 751.026 2130.76 734.316 2110 734.316ZM2042 705 2178 705 2178 840 2042 840Z" fill="#00CC5C" fill-rule="evenodd"/><path d="M2245.5 869.533C2224.89 869.533 2208.18 886.366 2208.18 907.131 2208.18 927.896 2224.89 944.73 2245.5 944.73 2266.11 944.73 2282.82 927.896 2282.82 907.131 2282.82 886.366 2266.11 869.533 2245.5 869.533ZM2178 840 2313 840 2313 976 2178 976Z" fill="#00CC5C" fill-rule="evenodd"/><path d="M2110.5 869.533C2089.89 869.533 2073.18 886.366 2073.18 907.131 2073.18 927.896 2089.89 944.73 2110.5 944.73 2131.11 944.73 2147.82 927.896 2147.82 907.131 2147.82 886.366 2131.11 869.533 2110.5 869.533ZM2043 840 2178 840 2178 976 2043 976Z" fill="#00F66F" fill-rule="evenodd"/><rect x="1371" y="1111" width="134" height="135" fill="#15FF7F"/><rect x="1235" y="976" width="135" height="135" fill="#15FF7F"/><rect x="1369" y="976" width="135" height="135" fill="#00C459"/><rect x="1235" y="1111" width="135" height="135" fill="#00C459"/><path d="M1437.5 1005.32C1416.89 1005.32 1400.18 1022.03 1400.18 1042.64 1400.18 1063.25 1416.89 1079.96 1437.5 1079.96 1458.11 1079.96 1474.82 1063.25 1474.82 1042.64 1474.82 1022.03 1458.11 1005.32 1437.5 1005.32ZM1370 976 1505 976 1505 1111 1370 1111Z" fill="#00F66F" fill-rule="evenodd"/><path d="M1302.5 1005.32C1281.89 1005.32 1265.18 1022.03 1265.18 1042.64 1265.18 1063.25 1281.89 1079.96 1302.5 1079.96 1323.11 1079.96 1339.82 1063.25 1339.82 1042.64 1339.82 1022.03 1323.11 1005.32 1302.5 1005.32ZM1235 976 1370 976 1370 1111 1235 1111Z" fill="#00CC5C" fill-rule="evenodd"/><path d="M1437.5 1140.32C1416.89 1140.32 1400.18 1157.03 1400.18 1177.64 1400.18 1198.25 1416.89 1214.96 1437.5 1214.96 1458.11 1214.96 1474.82 1198.25 1474.82 1177.64 1474.82 1157.03 1458.11 1140.32 1437.5 1140.32ZM1370 1111 1505 1111 1505 1246 1370 1246Z" fill="#00CC5C" fill-rule="evenodd"/><path d="M1302.5 1140.32C1281.89 1140.32 1265.18 1157.03 1265.18 1177.64 1265.18 1198.25 1281.89 1214.96 1302.5 1214.96 1323.11 1214.96 1339.82 1198.25 1339.82 1177.64 1339.82 1157.03 1323.11 1140.32 1302.5 1140.32ZM1235 1111 1370 1111 1370 1246 1235 1246Z" fill="#00F66F" fill-rule="evenodd"/><rect x="1641" y="1111" width="134" height="135" fill="#15FF7F"/><rect x="1505" y="976" width="135" height="135" fill="#15FF7F"/><rect x="1639" y="976" width="135" height="135" fill="#00C459"/><rect x="1505" y="1111" width="135" height="135" fill="#00C459"/><path d="M1708 1005.32C1687.54 1005.32 1670.95 1022.03 1670.95 1042.64 1670.95 1063.25 1687.54 1079.96 1708 1079.96 1728.46 1079.96 1745.05 1063.25 1745.05 1042.64 1745.05 1022.03 1728.46 1005.32 1708 1005.32ZM1641 976 1775 976 1775 1111 1641 1111Z" fill="#00F66F" fill-rule="evenodd"/><path d="M1572.5 1005.32C1551.89 1005.32 1535.18 1022.03 1535.18 1042.64 1535.18 1063.25 1551.89 1079.96 1572.5 1079.96 1593.11 1079.96 1609.82 1063.25 1609.82 1042.64 1609.82 1022.03 1593.11 1005.32 1572.5 1005.32ZM1505 976 1640 976 1640 1111 1505 1111Z" fill="#00CC5C" fill-rule="evenodd"/><path d="M1708 1140.32C1687.23 1140.32 1670.4 1157.03 1670.4 1177.64 1670.4 1198.25 1687.23 1214.96 1708 1214.96 1728.77 1214.96 1745.6 1198.25 1745.6 1177.64 1745.6 1157.03 1728.77 1140.32 1708 1140.32ZM1640 1111 1776 1111 1776 1246 1640 1246Z" fill="#00CC5C" fill-rule="evenodd"/><path d="M1573 1140.32C1552.23 1140.32 1535.4 1157.03 1535.4 1177.64 1535.4 1198.25 1552.23 1214.96 1573 1214.96 1593.77 1214.96 1610.6 1198.25 1610.6 1177.64 1610.6 1157.03 1593.77 1140.32 1573 1140.32ZM1505 1111 1641 1111 1641 1246 1505 1246Z" fill="#00F66F" fill-rule="evenodd"/><rect x="1908" y="1111" width="134" height="135" fill="#15FF7F"/><rect x="1772" y="976" width="135" height="135" fill="#15FF7F"/><rect x="1906" y="976" width="135" height="135" fill="#00C459"/><rect x="1772" y="1111" width="135" height="135" fill="#00C459"/><path d="M1975 1005.32C1954.54 1005.32 1937.95 1022.03 1937.95 1042.64 1937.95 1063.25 1954.54 1079.96 1975 1079.96 1995.46 1079.96 2012.05 1063.25 2012.05 1042.64 2012.05 1022.03 1995.46 1005.32 1975 1005.32ZM1908 976 2042 976 2042 1111 1908 1111Z" fill="#00F66F" fill-rule="evenodd"/><path d="M1840 1005.32C1819.23 1005.32 1802.4 1022.03 1802.4 1042.64 1802.4 1063.25 1819.23 1079.96 1840 1079.96 1860.77 1079.96 1877.6 1063.25 1877.6 1042.64 1877.6 1022.03 1860.77 1005.32 1840 1005.32ZM1772 976 1908 976 1908 1111 1772 1111Z" fill="#00CC5C" fill-rule="evenodd"/><path d="M1975 1140.32C1954.23 1140.32 1937.4 1157.03 1937.4 1177.64 1937.4 1198.25 1954.23 1214.96 1975 1214.96 1995.77 1214.96 2012.6 1198.25 2012.6 1177.64 2012.6 1157.03 1995.77 1140.32 1975 1140.32ZM1907 1111 2043 1111 2043 1246 1907 1246Z" fill="#00CC5C" fill-rule="evenodd"/><path d="M1840 1140.32C1819.23 1140.32 1802.4 1157.03 1802.4 1177.64 1802.4 1198.25 1819.23 1214.96 1840 1214.96 1860.77 1214.96 1877.6 1198.25 1877.6 1177.64 1877.6 1157.03 1860.77 1140.32 1840 1140.32ZM1772 1111 1908 1111 1908 1246 1772 1246Z" fill="#00F66F" fill-rule="evenodd"/><rect x="2179" y="1111" width="133" height="135" fill="#15FF7F"/><rect x="2043" y="976" width="135" height="135" fill="#15FF7F"/><rect x="2176" y="976" width="135" height="135" fill="#00C459"/><rect x="2042" y="1111" width="135" height="135" fill="#00C459"/><path d="M2245.5 1005.32C2224.89 1005.32 2208.18 1022.03 2208.18 1042.64 2208.18 1063.25 2224.89 1079.96 2245.5 1079.96 2266.11 1079.96 2282.82 1063.25 2282.82 1042.64 2282.82 1022.03 2266.11 1005.32 2245.5 1005.32ZM2178 976 2313 976 2313 1111 2178 1111Z" fill="#00F66F" fill-rule="evenodd"/><path d="M2110 1005.32C2089.23 1005.32 2072.4 1022.03 2072.4 1042.64 2072.4 1063.25 2089.23 1079.96 2110 1079.96 2130.76 1079.96 2147.6 1063.25 2147.6 1042.64 2147.6 1022.03 2130.76 1005.32 2110 1005.32ZM2042 976 2178 976 2178 1111 2042 1111Z" fill="#00CC5C" fill-rule="evenodd"/><path d="M2245.5 1140.32C2224.89 1140.32 2208.18 1157.03 2208.18 1177.64 2208.18 1198.25 2224.89 1214.96 2245.5 1214.96 2266.11 1214.96 2282.82 1198.25 2282.82 1177.64 2282.82 1157.03 2266.11 1140.32 2245.5 1140.32ZM2178 1111 2313 1111 2313 1246 2178 1246Z" fill="#00CC5C" fill-rule="evenodd"/><path d="M2110.5 1140.32C2089.89 1140.32 2073.18 1157.03 2073.18 1177.64 2073.18 1198.25 2089.89 1214.96 2110.5 1214.96 2131.11 1214.96 2147.82 1198.25 2147.82 1177.64 2147.82 1157.03 2131.11 1140.32 2110.5 1140.32ZM2043 1111 2178 1111 2178 1246 2043 1246Z" fill="#00F66F" fill-rule="evenodd"/><rect x="1371" y="1382" width="134" height="135" fill="#15FF7F"/><rect x="1235" y="1246" width="135" height="136" fill="#15FF7F"/><rect x="1369" y="1246" width="135" height="136" fill="#00C459"/><rect x="1235" y="1382" width="135" height="135" fill="#00C459"/><path d="M1437.5 1275.53C1416.89 1275.53 1400.18 1292.37 1400.18 1313.13 1400.18 1333.9 1416.89 1350.73 1437.5 1350.73 1458.11 1350.73 1474.82 1333.9 1474.82 1313.13 1474.82 1292.37 1458.11 1275.53 1437.5 1275.53ZM1370 1246 1505 1246 1505 1382 1370 1382Z" fill="#00F66F" fill-rule="evenodd"/><path d="M1302.5 1275.53C1281.89 1275.53 1265.18 1292.37 1265.18 1313.13 1265.18 1333.9 1281.89 1350.73 1302.5 1350.73 1323.11 1350.73 1339.82 1333.9 1339.82 1313.13 1339.82 1292.37 1323.11 1275.53 1302.5 1275.53ZM1235 1246 1370 1246 1370 1382 1235 1382Z" fill="#00CC5C" fill-rule="evenodd"/><path d="M1437.5 1411.32C1416.89 1411.32 1400.18 1428.03 1400.18 1448.64 1400.18 1469.25 1416.89 1485.96 1437.5 1485.96 1458.11 1485.96 1474.82 1469.25 1474.82 1448.64 1474.82 1428.03 1458.11 1411.32 1437.5 1411.32ZM1370 1382 1505 1382 1505 1517 1370 1517Z" fill="#00CC5C" fill-rule="evenodd"/><path d="M1302.5 1411.32C1281.89 1411.32 1265.18 1428.03 1265.18 1448.64 1265.18 1469.25 1281.89 1485.96 1302.5 1485.96 1323.11 1485.96 1339.82 1469.25 1339.82 1448.64 1339.82 1428.03 1323.11 1411.32 1302.5 1411.32ZM1235 1382 1370 1382 1370 1517 1235 1517Z" fill="#00F66F" fill-rule="evenodd"/><rect x="1641" y="1382" width="134" height="135" fill="#15FF7F"/><rect x="1505" y="1246" width="135" height="136" fill="#15FF7F"/><rect x="1639" y="1246" width="135" height="136" fill="#00C459"/><rect x="1505" y="1382" width="135" height="135" fill="#00C459"/><path d="M1708 1275.53C1687.54 1275.53 1670.95 1292.37 1670.95 1313.13 1670.95 1333.9 1687.54 1350.73 1708 1350.73 1728.46 1350.73 1745.05 1333.9 1745.05 1313.13 1745.05 1292.37 1728.46 1275.53 1708 1275.53ZM1641 1246 1775 1246 1775 1382 1641 1382Z" fill="#00F66F" fill-rule="evenodd"/><path d="M1572.5 1275.53C1551.89 1275.53 1535.18 1292.37 1535.18 1313.13 1535.18 1333.9 1551.89 1350.73 1572.5 1350.73 1593.11 1350.73 1609.82 1333.9 1609.82 1313.13 1609.82 1292.37 1593.11 1275.53 1572.5 1275.53ZM1505 1246 1640 1246 1640 1382 1505 1382Z" fill="#00CC5C" fill-rule="evenodd"/><path d="M1708 1411.32C1687.23 1411.32 1670.4 1428.03 1670.4 1448.64 1670.4 1469.25 1687.23 1485.96 1708 1485.96 1728.77 1485.96 1745.6 1469.25 1745.6 1448.64 1745.6 1428.03 1728.77 1411.32 1708 1411.32ZM1640 1382 1776 1382 1776 1517 1640 1517Z" fill="#00CC5C" fill-rule="evenodd"/><path d="M1573 1411.32C1552.23 1411.32 1535.4 1428.03 1535.4 1448.64 1535.4 1469.25 1552.23 1485.96 1573 1485.96 1593.77 1485.96 1610.6 1469.25 1610.6 1448.64 1610.6 1428.03 1593.77 1411.32 1573 1411.32ZM1505 1382 1641 1382 1641 1517 1505 1517Z" fill="#00F66F" fill-rule="evenodd"/><rect x="1908" y="1382" width="134" height="135" fill="#15FF7F"/><rect x="1772" y="1246" width="135" height="136" fill="#15FF7F"/><rect x="1906" y="1246" width="135" height="136" fill="#00C459"/><rect x="1772" y="1382" width="135" height="135" fill="#00C459"/><path d="M1975 1275.53C1954.54 1275.53 1937.95 1292.37 1937.95 1313.13 1937.95 1333.9 1954.54 1350.73 1975 1350.73 1995.46 1350.73 2012.05 1333.9 2012.05 1313.13 2012.05 1292.37 1995.46 1275.53 1975 1275.53ZM1908 1246 2042 1246 2042 1382 1908 1382Z" fill="#00F66F" fill-rule="evenodd"/><path d="M1840 1275.53C1819.23 1275.53 1802.4 1292.37 1802.4 1313.13 1802.4 1333.9 1819.23 1350.73 1840 1350.73 1860.77 1350.73 1877.6 1333.9 1877.6 1313.13 1877.6 1292.37 1860.77 1275.53 1840 1275.53ZM1772 1246 1908 1246 1908 1382 1772 1382Z" fill="#00CC5C" fill-rule="evenodd"/><path d="M1975 1411.32C1954.23 1411.32 1937.4 1428.03 1937.4 1448.64 1937.4 1469.25 1954.23 1485.96 1975 1485.96 1995.77 1485.96 2012.6 1469.25 2012.6 1448.64 2012.6 1428.03 1995.77 1411.32 1975 1411.32ZM1907 1382 2043 1382 2043 1517 1907 1517Z" fill="#00CC5C" fill-rule="evenodd"/><path d="M1840 1411.32C1819.23 1411.32 1802.4 1428.03 1802.4 1448.64 1802.4 1469.25 1819.23 1485.96 1840 1485.96 1860.77 1485.96 1877.6 1469.25 1877.6 1448.64 1877.6 1428.03 1860.77 1411.32 1840 1411.32ZM1772 1382 1908 1382 1908 1517 1772 1517Z" fill="#00F66F" fill-rule="evenodd"/><rect x="2179" y="1382" width="133" height="135" fill="#15FF7F"/><rect x="2043" y="1246" width="135" height="136" fill="#15FF7F"/><rect x="2176" y="1246" width="135" height="136" fill="#00C459"/><rect x="2042" y="1382" width="135" height="135" fill="#00C459"/><path d="M2245.5 1275.53C2224.89 1275.53 2208.18 1292.37 2208.18 1313.13 2208.18 1333.9 2224.89 1350.73 2245.5 1350.73 2266.11 1350.73 2282.82 1333.9 2282.82 1313.13 2282.82 1292.37 2266.11 1275.53 2245.5 1275.53ZM2178 1246 2313 1246 2313 1382 2178 1382Z" fill="#00F66F" fill-rule="evenodd"/><path d="M2110 1275.53C2089.23 1275.53 2072.4 1292.37 2072.4 1313.13 2072.4 1333.9 2089.23 1350.73 2110 1350.73 2130.76 1350.73 2147.6 1333.9 2147.6 1313.13 2147.6 1292.37 2130.76 1275.53 2110 1275.53ZM2042 1246 2178 1246 2178 1382 2042 1382Z" fill="#00CC5C" fill-rule="evenodd"/><path d="M2245.5 1411.32C2224.89 1411.32 2208.18 1428.03 2208.18 1448.64 2208.18 1469.25 2224.89 1485.96 2245.5 1485.96 2266.11 1485.96 2282.82 1469.25 2282.82 1448.64 2282.82 1428.03 2266.11 1411.32 2245.5 1411.32ZM2178 1382 2313 1382 2313 1517 2178 1517Z" fill="#00CC5C" fill-rule="evenodd"/><path d="M2110.5 1411.32C2089.89 1411.32 2073.18 1428.03 2073.18 1448.64 2073.18 1469.25 2089.89 1485.96 2110.5 1485.96 2131.11 1485.96 2147.82 1469.25 2147.82 1448.64 2147.82 1428.03 2131.11 1411.32 2110.5 1411.32ZM2043 1382 2178 1382 2178 1517 2043 1517Z" fill="#00F66F" fill-rule="evenodd"/><rect x="1371" y="1652" width="134" height="136" fill="#15FF7F"/><rect x="1235" y="1517" width="135" height="135" fill="#15FF7F"/><rect x="1369" y="1517" width="135" height="135" fill="#00C459"/><rect x="1235" y="1652" width="135" height="136" fill="#00C459"/><path d="M1437.5 1546.32C1416.89 1546.32 1400.18 1563.03 1400.18 1583.64 1400.18 1604.25 1416.89 1620.96 1437.5 1620.96 1458.11 1620.96 1474.82 1604.25 1474.82 1583.64 1474.82 1563.03 1458.11 1546.32 1437.5 1546.32ZM1370 1517 1505 1517 1505 1652 1370 1652Z" fill="#00F66F" fill-rule="evenodd"/><path d="M1302.5 1546.32C1281.89 1546.32 1265.18 1563.03 1265.18 1583.64 1265.18 1604.25 1281.89 1620.96 1302.5 1620.96 1323.11 1620.96 1339.82 1604.25 1339.82 1583.64 1339.82 1563.03 1323.11 1546.32 1302.5 1546.32ZM1235 1517 1370 1517 1370 1652 1235 1652Z" fill="#00CC5C" fill-rule="evenodd"/><path d="M1438 1681.53C1417.23 1681.53 1400.4 1698.37 1400.4 1719.13 1400.4 1739.9 1417.23 1756.73 1438 1756.73 1458.77 1756.73 1475.6 1739.9 1475.6 1719.13 1475.6 1698.37 1458.77 1681.53 1438 1681.53ZM1370 1652 1506 1652 1506 1788 1370 1788Z" fill="#00CC5C" fill-rule="evenodd"/><path d="M1303 1681.53C1282.23 1681.53 1265.4 1698.37 1265.4 1719.13 1265.4 1739.9 1282.23 1756.73 1303 1756.73 1323.77 1756.73 1340.6 1739.9 1340.6 1719.13 1340.6 1698.37 1323.77 1681.53 1303 1681.53ZM1235 1652 1371 1652 1371 1788 1235 1788Z" fill="#00F66F" fill-rule="evenodd"/><rect x="1641" y="1652" width="134" height="136" fill="#15FF7F"/><rect x="1505" y="1517" width="135" height="135" fill="#15FF7F"/><rect x="1639" y="1517" width="135" height="135" fill="#00C459"/><rect x="1505" y="1652" width="135" height="136" fill="#00C459"/><path d="M1708 1546.32C1687.54 1546.32 1670.95 1563.03 1670.95 1583.64 1670.95 1604.25 1687.54 1620.96 1708 1620.96 1728.46 1620.96 1745.05 1604.25 1745.05 1583.64 1745.05 1563.03 1728.46 1546.32 1708 1546.32ZM1641 1517 1775 1517 1775 1652 1641 1652Z" fill="#00F66F" fill-rule="evenodd"/><path d="M1573 1546.32C1552.23 1546.32 1535.4 1563.03 1535.4 1583.64 1535.4 1604.25 1552.23 1620.96 1573 1620.96 1593.77 1620.96 1610.6 1604.25 1610.6 1583.64 1610.6 1563.03 1593.77 1546.32 1573 1546.32ZM1505 1517 1641 1517 1641 1652 1505 1652Z" fill="#00CC5C" fill-rule="evenodd"/><path d="M1708 1681.53C1687.23 1681.53 1670.4 1698.37 1670.4 1719.13 1670.4 1739.9 1687.23 1756.73 1708 1756.73 1728.77 1756.73 1745.6 1739.9 1745.6 1719.13 1745.6 1698.37 1728.77 1681.53 1708 1681.53ZM1640 1652 1776 1652 1776 1788 1640 1788Z" fill="#00CC5C" fill-rule="evenodd"/><path d="M1573 1681.53C1552.23 1681.53 1535.4 1698.37 1535.4 1719.13 1535.4 1739.9 1552.23 1756.73 1573 1756.73 1593.77 1756.73 1610.6 1739.9 1610.6 1719.13 1610.6 1698.37 1593.77 1681.53 1573 1681.53ZM1505 1652 1641 1652 1641 1788 1505 1788Z" fill="#00F66F" fill-rule="evenodd"/><rect x="1908" y="1652" width="134" height="136" fill="#15FF7F"/><rect x="1773" y="1517" width="135" height="135" fill="#15FF7F"/><rect x="1906" y="1517" width="135" height="135" fill="#00C459"/><rect x="1772" y="1652" width="135" height="136" fill="#00C459"/><path d="M1975.5 1546.32C1954.89 1546.32 1938.18 1563.03 1938.18 1583.64 1938.18 1604.25 1954.89 1620.96 1975.5 1620.96 1996.11 1620.96 2012.82 1604.25 2012.82 1583.64 2012.82 1563.03 1996.11 1546.32 1975.5 1546.32ZM1908 1517 2043 1517 2043 1652 1908 1652Z" fill="#00F66F" fill-rule="evenodd"/><path d="M1840 1546.32C1819.23 1546.32 1802.4 1563.03 1802.4 1583.64 1802.4 1604.25 1819.23 1620.96 1840 1620.96 1860.77 1620.96 1877.6 1604.25 1877.6 1583.64 1877.6 1563.03 1860.77 1546.32 1840 1546.32ZM1772 1517 1908 1517 1908 1652 1772 1652Z" fill="#00CC5C" fill-rule="evenodd"/><path d="M1975.5 1681.53C1954.89 1681.53 1938.18 1698.37 1938.18 1719.13 1938.18 1739.9 1954.89 1756.73 1975.5 1756.73 1996.11 1756.73 2012.82 1739.9 2012.82 1719.13 2012.82 1698.37 1996.11 1681.53 1975.5 1681.53ZM1908 1652 2043 1652 2043 1788 1908 1788Z" fill="#00CC5C" fill-rule="evenodd"/><path d="M1840.5 1681.53C1819.89 1681.53 1803.18 1698.37 1803.18 1719.13 1803.18 1739.9 1819.89 1756.73 1840.5 1756.73 1861.11 1756.73 1877.82 1739.9 1877.82 1719.13 1877.82 1698.37 1861.11 1681.53 1840.5 1681.53ZM1773 1652 1908 1652 1908 1788 1773 1788Z" fill="#00F66F" fill-rule="evenodd"/><rect x="2179" y="1652" width="134" height="136" fill="#15FF7F"/><rect x="2043" y="1517" width="135" height="135" fill="#15FF7F"/><rect x="2177" y="1517" width="135" height="135" fill="#00C459"/><rect x="2043" y="1652" width="135" height="136" fill="#00C459"/><path d="M2245.5 1546.32C2224.89 1546.32 2208.18 1563.03 2208.18 1583.64 2208.18 1604.25 2224.89 1620.96 2245.5 1620.96 2266.11 1620.96 2282.82 1604.25 2282.82 1583.64 2282.82 1563.03 2266.11 1546.32 2245.5 1546.32ZM2178 1517 2313 1517 2313 1652 2178 1652Z" fill="#00F66F" fill-rule="evenodd"/><path d="M2110.5 1546.32C2089.89 1546.32 2073.18 1563.03 2073.18 1583.64 2073.18 1604.25 2089.89 1620.96 2110.5 1620.96 2131.11 1620.96 2147.82 1604.25 2147.82 1583.64 2147.82 1563.03 2131.11 1546.32 2110.5 1546.32ZM2043 1517 2178 1517 2178 1652 2043 1652Z" fill="#00CC5C" fill-rule="evenodd"/><path d="M2245.5 1681.53C2224.89 1681.53 2208.18 1698.37 2208.18 1719.13 2208.18 1739.9 2224.89 1756.73 2245.5 1756.73 2266.11 1756.73 2282.82 1739.9 2282.82 1719.13 2282.82 1698.37 2266.11 1681.53 2245.5 1681.53ZM2178 1652 2313 1652 2313 1788 2178 1788Z" fill="#00CC5C" fill-rule="evenodd"/><path d="M2110.5 1681.53C2089.89 1681.53 2073.18 1698.37 2073.18 1719.13 2073.18 1739.9 2089.89 1756.73 2110.5 1756.73 2131.11 1756.73 2147.82 1739.9 2147.82 1719.13 2147.82 1698.37 2131.11 1681.53 2110.5 1681.53ZM2043 1652 2178 1652 2178 1788 2043 1788Z" fill="#00F66F" fill-rule="evenodd"/><rect x="298" y="1923" width="134" height="135" fill="#15FF7F"/><rect x="162" y="1787" width="135" height="136" fill="#15FF7F"/><rect x="296" y="1787" width="135" height="136" fill="#00C459"/><rect x="162" y="1923" width="135" height="135" fill="#00C459"/><path d="M364.5 1816.53C343.888 1816.53 327.178 1833.37 327.178 1854.13 327.178 1874.9 343.888 1891.73 364.5 1891.73 385.112 1891.73 401.822 1874.9 401.822 1854.13 401.822 1833.37 385.112 1816.53 364.5 1816.53ZM297 1787 432 1787 432 1923 297 1923Z" fill="#00F66F" fill-rule="evenodd"/><path d="M229.5 1816.53C208.888 1816.53 192.178 1833.37 192.178 1854.13 192.178 1874.9 208.888 1891.73 229.5 1891.73 250.112 1891.73 266.822 1874.9 266.822 1854.13 266.822 1833.37 250.112 1816.53 229.5 1816.53ZM162 1787 297 1787 297 1923 162 1923Z" fill="#00CC5C" fill-rule="evenodd"/><path d="M364.5 1952.32C343.888 1952.32 327.178 1969.03 327.178 1989.64 327.178 2010.25 343.888 2026.96 364.5 2026.96 385.112 2026.96 401.822 2010.25 401.822 1989.64 401.822 1969.03 385.112 1952.32 364.5 1952.32ZM297 1923 432 1923 432 2058 297 2058Z" fill="#00CC5C" fill-rule="evenodd"/><path d="M229.5 1952.32C208.888 1952.32 192.178 1969.03 192.178 1989.64 192.178 2010.25 208.888 2026.96 229.5 2026.96 250.112 2026.96 266.822 2010.25 266.822 1989.64 266.822 1969.03 250.112 1952.32 229.5 1952.32ZM162 1923 297 1923 297 2058 162 2058Z" fill="#00F66F" fill-rule="evenodd"/><rect x="568" y="1923" width="134" height="135" fill="#15FF7F"/><rect x="432" y="1787" width="135" height="136" fill="#15FF7F"/><rect x="566" y="1787" width="135" height="136" fill="#00C459"/><rect x="432" y="1923" width="135" height="135" fill="#00C459"/><path d="M635 1816.53C614.54 1816.53 597.954 1833.37 597.954 1854.13 597.954 1874.9 614.54 1891.73 635 1891.73 655.46 1891.73 672.046 1874.9 672.046 1854.13 672.046 1833.37 655.46 1816.53 635 1816.53ZM568 1787 702 1787 702 1923 568 1923Z" fill="#00F66F" fill-rule="evenodd"/><path d="M499.5 1816.53C478.888 1816.53 462.178 1833.37 462.178 1854.13 462.178 1874.9 478.888 1891.73 499.5 1891.73 520.112 1891.73 536.822 1874.9 536.822 1854.13 536.822 1833.37 520.112 1816.53 499.5 1816.53ZM432 1787 567 1787 567 1923 432 1923Z" fill="#00CC5C" fill-rule="evenodd"/><path d="M635 1952.32C614.235 1952.32 597.401 1969.03 597.401 1989.64 597.401 2010.25 614.235 2026.96 635 2026.96 655.765 2026.96 672.598 2010.25 672.598 1989.64 672.598 1969.03 655.765 1952.32 635 1952.32ZM567 1923 703 1923 703 2058 567 2058Z" fill="#00CC5C" fill-rule="evenodd"/><path d="M500 1952.32C479.235 1952.32 462.401 1969.03 462.401 1989.64 462.401 2010.25 479.235 2026.96 500 2026.96 520.765 2026.96 537.598 2010.25 537.598 1989.64 537.598 1969.03 520.765 1952.32 500 1952.32ZM432 1923 568 1923 568 2058 432 2058Z" fill="#00F66F" fill-rule="evenodd"/><rect x="835" y="1923" width="134" height="135" fill="#15FF7F"/><rect x="700" y="1787" width="134" height="136" fill="#15FF7F"/><rect x="833" y="1787" width="135" height="136" fill="#00C459"/><rect x="699" y="1923" width="135" height="135" fill="#00C459"/><path d="M902 1816.53C881.54 1816.53 864.954 1833.37 864.954 1854.13 864.954 1874.9 881.54 1891.73 902 1891.73 922.46 1891.73 939.046 1874.9 939.046 1854.13 939.046 1833.37 922.46 1816.53 902 1816.53ZM835 1787 969 1787 969 1923 835 1923Z" fill="#00F66F" fill-rule="evenodd"/><path d="M767 1816.53C746.235 1816.53 729.401 1833.37 729.401 1854.13 729.401 1874.9 746.235 1891.73 767 1891.73 787.765 1891.73 804.598 1874.9 804.598 1854.13 804.598 1833.37 787.765 1816.53 767 1816.53ZM699 1787 835 1787 835 1923 699 1923Z" fill="#00CC5C" fill-rule="evenodd"/><path d="M902 1952.32C881.235 1952.32 864.401 1969.03 864.401 1989.64 864.401 2010.25 881.235 2026.96 902 2026.96 922.765 2026.96 939.599 2010.25 939.599 1989.64 939.599 1969.03 922.765 1952.32 902 1952.32ZM834 1923 970 1923 970 2058 834 2058Z" fill="#00CC5C" fill-rule="evenodd"/><path d="M767.5 1952.32C746.888 1952.32 730.178 1969.03 730.178 1989.64 730.178 2010.25 746.888 2026.96 767.5 2026.96 788.112 2026.96 804.822 2010.25 804.822 1989.64 804.822 1969.03 788.112 1952.32 767.5 1952.32ZM700 1923 835 1923 835 2058 700 2058Z" fill="#00F66F" fill-rule="evenodd"/><rect x="1106" y="1923" width="133" height="135" fill="#15FF7F"/><rect x="970" y="1787" width="135" height="136" fill="#15FF7F"/><rect x="1104" y="1787" width="134" height="136" fill="#00C459"/><rect x="969" y="1923" width="135" height="135" fill="#00C459"/><path d="M1172.5 1816.53C1151.89 1816.53 1135.18 1833.37 1135.18 1854.13 1135.18 1874.9 1151.89 1891.73 1172.5 1891.73 1193.11 1891.73 1209.82 1874.9 1209.82 1854.13 1209.82 1833.37 1193.11 1816.53 1172.5 1816.53ZM1105 1787 1240 1787 1240 1923 1105 1923Z" fill="#00F66F" fill-rule="evenodd"/><path d="M1037 1816.53C1016.24 1816.53 999.402 1833.37 999.402 1854.13 999.402 1874.9 1016.24 1891.73 1037 1891.73 1057.77 1891.73 1074.6 1874.9 1074.6 1854.13 1074.6 1833.37 1057.77 1816.53 1037 1816.53ZM969 1787 1105 1787 1105 1923 969 1923Z" fill="#00CC5C" fill-rule="evenodd"/><path d="M1172.5 1952.32C1151.89 1952.32 1135.18 1969.03 1135.18 1989.64 1135.18 2010.25 1151.89 2026.96 1172.5 2026.96 1193.11 2026.96 1209.82 2010.25 1209.82 1989.64 1209.82 1969.03 1193.11 1952.32 1172.5 1952.32ZM1105 1923 1240 1923 1240 2058 1105 2058Z" fill="#00CC5C" fill-rule="evenodd"/><path d="M1037.5 1952.32C1016.89 1952.32 1000.18 1969.03 1000.18 1989.64 1000.18 2010.25 1016.89 2026.96 1037.5 2026.96 1058.11 2026.96 1074.82 2010.25 1074.82 1989.64 1074.82 1969.03 1058.11 1952.32 1037.5 1952.32ZM970 1923 1105 1923 1105 2058 970 2058Z" fill="#00F66F" fill-rule="evenodd"/><rect x="298" y="2193" width="134" height="136" fill="#15FF7F"/><rect x="162" y="2058" width="135" height="135" fill="#15FF7F"/><rect x="296" y="2058" width="135" height="135" fill="#00C459"/><rect x="162" y="2193" width="135" height="136" fill="#00C459"/><path d="M364.5 2087.32C343.888 2087.32 327.178 2104.03 327.178 2124.64 327.178 2145.25 343.888 2161.96 364.5 2161.96 385.112 2161.96 401.822 2145.25 401.822 2124.64 401.822 2104.03 385.112 2087.32 364.5 2087.32ZM297 2058 432 2058 432 2193 297 2193Z" fill="#00F66F" fill-rule="evenodd"/><path d="M229.5 2087.32C208.888 2087.32 192.178 2104.03 192.178 2124.64 192.178 2145.25 208.888 2161.96 229.5 2161.96 250.112 2161.96 266.822 2145.25 266.822 2124.64 266.822 2104.03 250.112 2087.32 229.5 2087.32ZM162 2058 297 2058 297 2193 162 2193Z" fill="#00CC5C" fill-rule="evenodd"/><path d="M365 2222.53C344.235 2222.53 327.401 2239.37 327.401 2260.13 327.401 2280.9 344.235 2297.73 365 2297.73 385.765 2297.73 402.599 2280.9 402.599 2260.13 402.599 2239.37 385.765 2222.53 365 2222.53ZM297 2193 433 2193 433 2329 297 2329Z" fill="#00CC5C" fill-rule="evenodd"/><path d="M230 2222.53C209.235 2222.53 192.401 2239.37 192.401 2260.13 192.401 2280.9 209.235 2297.73 230 2297.73 250.765 2297.73 267.599 2280.9 267.599 2260.13 267.599 2239.37 250.765 2222.53 230 2222.53ZM162 2193 298 2193 298 2329 162 2329Z" fill="#00F66F" fill-rule="evenodd"/><rect x="568" y="2193" width="134" height="136" fill="#15FF7F"/><rect x="432" y="2058" width="135" height="135" fill="#15FF7F"/><rect x="566" y="2058" width="135" height="135" fill="#00C459"/><rect x="432" y="2193" width="135" height="136" fill="#00C459"/><path d="M635 2087.32C614.54 2087.32 597.954 2104.03 597.954 2124.64 597.954 2145.25 614.54 2161.96 635 2161.96 655.46 2161.96 672.046 2145.25 672.046 2124.64 672.046 2104.03 655.46 2087.32 635 2087.32ZM568 2058 702 2058 702 2193 568 2193Z" fill="#00F66F" fill-rule="evenodd"/><path d="M500 2087.32C479.235 2087.32 462.401 2104.03 462.401 2124.64 462.401 2145.25 479.235 2161.96 500 2161.96 520.765 2161.96 537.598 2145.25 537.598 2124.64 537.598 2104.03 520.765 2087.32 500 2087.32ZM432 2058 568 2058 568 2193 432 2193Z" fill="#00CC5C" fill-rule="evenodd"/><path d="M635 2222.53C614.235 2222.53 597.401 2239.37 597.401 2260.13 597.401 2280.9 614.235 2297.73 635 2297.73 655.765 2297.73 672.598 2280.9 672.598 2260.13 672.598 2239.37 655.765 2222.53 635 2222.53ZM567 2193 703 2193 703 2329 567 2329Z" fill="#00CC5C" fill-rule="evenodd"/><path d="M500 2222.53C479.235 2222.53 462.401 2239.37 462.401 2260.13 462.401 2280.9 479.235 2297.73 500 2297.73 520.765 2297.73 537.598 2280.9 537.598 2260.13 537.598 2239.37 520.765 2222.53 500 2222.53ZM432 2193 568 2193 568 2329 432 2329Z" fill="#00F66F" fill-rule="evenodd"/><rect x="836" y="2193" width="133" height="136" fill="#15FF7F"/><rect x="700" y="2058" width="135" height="135" fill="#15FF7F"/><rect x="833" y="2058" width="135" height="135" fill="#00C459"/><rect x="699" y="2193" width="135" height="136" fill="#00C459"/><path d="M902.5 2087.32C881.888 2087.32 865.178 2104.03 865.178 2124.64 865.178 2145.25 881.888 2161.96 902.5 2161.96 923.112 2161.96 939.822 2145.25 939.822 2124.64 939.822 2104.03 923.112 2087.32 902.5 2087.32ZM835 2058 970 2058 970 2193 835 2193Z" fill="#00F66F" fill-rule="evenodd"/><path d="M767 2087.32C746.235 2087.32 729.401 2104.03 729.401 2124.64 729.401 2145.25 746.235 2161.96 767 2161.96 787.765 2161.96 804.598 2145.25 804.598 2124.64 804.598 2104.03 787.765 2087.32 767 2087.32ZM699 2058 835 2058 835 2193 699 2193Z" fill="#00CC5C" fill-rule="evenodd"/><path d="M902.5 2222.53C881.888 2222.53 865.178 2239.37 865.178 2260.13 865.178 2280.9 881.888 2297.73 902.5 2297.73 923.112 2297.73 939.822 2280.9 939.822 2260.13 939.822 2239.37 923.112 2222.53 902.5 2222.53ZM835 2193 970 2193 970 2329 835 2329Z" fill="#00CC5C" fill-rule="evenodd"/><path d="M767.5 2222.53C746.888 2222.53 730.178 2239.37 730.178 2260.13 730.178 2280.9 746.888 2297.73 767.5 2297.73 788.112 2297.73 804.822 2280.9 804.822 2260.13 804.822 2239.37 788.112 2222.53 767.5 2222.53ZM700 2193 835 2193 835 2329 700 2329Z" fill="#00F66F" fill-rule="evenodd"/><rect x="1106" y="2193" width="134" height="136" fill="#15FF7F"/><rect x="970" y="2058" width="135" height="135" fill="#15FF7F"/><rect x="1104" y="2058" width="135" height="135" fill="#00C459"/><rect x="970" y="2193" width="135" height="136" fill="#00C459"/><path d="M1172.5 2087.32C1151.89 2087.32 1135.18 2104.03 1135.18 2124.64 1135.18 2145.25 1151.89 2161.96 1172.5 2161.96 1193.11 2161.96 1209.82 2145.25 1209.82 2124.64 1209.82 2104.03 1193.11 2087.32 1172.5 2087.32ZM1105 2058 1240 2058 1240 2193 1105 2193Z" fill="#00F66F" fill-rule="evenodd"/><path d="M1037.5 2087.32C1016.89 2087.32 1000.18 2104.03 1000.18 2124.64 1000.18 2145.25 1016.89 2161.96 1037.5 2161.96 1058.11 2161.96 1074.82 2145.25 1074.82 2124.64 1074.82 2104.03 1058.11 2087.32 1037.5 2087.32ZM970 2058 1105 2058 1105 2193 970 2193Z" fill="#00CC5C" fill-rule="evenodd"/><path d="M1172.5 2222.53C1151.89 2222.53 1135.18 2239.37 1135.18 2260.13 1135.18 2280.9 1151.89 2297.73 1172.5 2297.73 1193.11 2297.73 1209.82 2280.9 1209.82 2260.13 1209.82 2239.37 1193.11 2222.53 1172.5 2222.53ZM1105 2193 1240 2193 1240 2329 1105 2329Z" fill="#00CC5C" fill-rule="evenodd"/><path d="M1037.5 2222.53C1016.89 2222.53 1000.18 2239.37 1000.18 2260.13 1000.18 2280.9 1016.89 2297.73 1037.5 2297.73 1058.11 2297.73 1074.82 2280.9 1074.82 2260.13 1074.82 2239.37 1058.11 2222.53 1037.5 2222.53ZM970 2193 1105 2193 1105 2329 970 2329Z" fill="#00F66F" fill-rule="evenodd"/><rect x="298" y="2464" width="134" height="135" fill="#15FF7F"/><rect x="162" y="2329" width="135" height="135" fill="#15FF7F"/><rect x="296" y="2329" width="135" height="135" fill="#00C459"/><rect x="162" y="2464" width="135" height="135" fill="#00C459"/><path d="M364.5 2358.32C343.888 2358.32 327.178 2375.03 327.178 2395.64 327.178 2416.25 343.888 2432.96 364.5 2432.96 385.112 2432.96 401.822 2416.25 401.822 2395.64 401.822 2375.03 385.112 2358.32 364.5 2358.32ZM297 2329 432 2329 432 2464 297 2464Z" fill="#00F66F" fill-rule="evenodd"/><path d="M229.5 2358.32C208.888 2358.32 192.178 2375.03 192.178 2395.64 192.178 2416.25 208.888 2432.96 229.5 2432.96 250.112 2432.96 266.822 2416.25 266.822 2395.64 266.822 2375.03 250.112 2358.32 229.5 2358.32ZM162 2329 297 2329 297 2464 162 2464Z" fill="#00CC5C" fill-rule="evenodd"/><path d="M365 2493.32C344.235 2493.32 327.401 2510.03 327.401 2530.64 327.401 2551.25 344.235 2567.96 365 2567.96 385.765 2567.96 402.599 2551.25 402.599 2530.64 402.599 2510.03 385.765 2493.32 365 2493.32ZM297 2464 433 2464 433 2599 297 2599Z" fill="#00CC5C" fill-rule="evenodd"/><path d="M230 2493.32C209.235 2493.32 192.401 2510.03 192.401 2530.64 192.401 2551.25 209.235 2567.96 230 2567.96 250.765 2567.96 267.599 2551.25 267.599 2530.64 267.599 2510.03 250.765 2493.32 230 2493.32ZM162 2464 298 2464 298 2599 162 2599Z" fill="#00F66F" fill-rule="evenodd"/><rect x="568" y="2464" width="134" height="135" fill="#15FF7F"/><rect x="432" y="2329" width="135" height="135" fill="#15FF7F"/><rect x="566" y="2329" width="135" height="135" fill="#00C459"/><rect x="432" y="2464" width="135" height="135" fill="#00C459"/><path d="M635 2358.32C614.54 2358.32 597.954 2375.03 597.954 2395.64 597.954 2416.25 614.54 2432.96 635 2432.96 655.46 2432.96 672.046 2416.25 672.046 2395.64 672.046 2375.03 655.46 2358.32 635 2358.32ZM568 2329 702 2329 702 2464 568 2464Z" fill="#00F66F" fill-rule="evenodd"/><path d="M500 2358.32C479.235 2358.32 462.401 2375.03 462.401 2395.64 462.401 2416.25 479.235 2432.96 500 2432.96 520.765 2432.96 537.598 2416.25 537.598 2395.64 537.598 2375.03 520.765 2358.32 500 2358.32ZM432 2329 568 2329 568 2464 432 2464Z" fill="#00CC5C" fill-rule="evenodd"/><path d="M635 2493.32C614.235 2493.32 597.401 2510.03 597.401 2530.64 597.401 2551.25 614.235 2567.96 635 2567.96 655.765 2567.96 672.598 2551.25 672.598 2530.64 672.598 2510.03 655.765 2493.32 635 2493.32ZM567 2464 703 2464 703 2599 567 2599Z" fill="#00CC5C" fill-rule="evenodd"/><path d="M500 2493.32C479.235 2493.32 462.401 2510.03 462.401 2530.64 462.401 2551.25 479.235 2567.96 500 2567.96 520.765 2567.96 537.598 2551.25 537.598 2530.64 537.598 2510.03 520.765 2493.32 500 2493.32ZM432 2464 568 2464 568 2599 432 2599Z" fill="#00F66F" fill-rule="evenodd"/><rect x="836" y="2464" width="133" height="135" fill="#15FF7F"/><rect x="700" y="2329" width="135" height="135" fill="#15FF7F"/><rect x="833" y="2329" width="135" height="135" fill="#00C459"/><rect x="699" y="2464" width="135" height="135" fill="#00C459"/><path d="M902.5 2358.32C881.888 2358.32 865.178 2375.03 865.178 2395.64 865.178 2416.25 881.888 2432.96 902.5 2432.96 923.112 2432.96 939.822 2416.25 939.822 2395.64 939.822 2375.03 923.112 2358.32 902.5 2358.32ZM835 2329 970 2329 970 2464 835 2464Z" fill="#00F66F" fill-rule="evenodd"/><path d="M767 2358.32C746.235 2358.32 729.401 2375.03 729.401 2395.64 729.401 2416.25 746.235 2432.96 767 2432.96 787.765 2432.96 804.598 2416.25 804.598 2395.64 804.598 2375.03 787.765 2358.32 767 2358.32ZM699 2329 835 2329 835 2464 699 2464Z" fill="#00CC5C" fill-rule="evenodd"/><path d="M902.5 2493.32C881.888 2493.32 865.178 2510.03 865.178 2530.64 865.178 2551.25 881.888 2567.96 902.5 2567.96 923.112 2567.96 939.822 2551.25 939.822 2530.64 939.822 2510.03 923.112 2493.32 902.5 2493.32ZM835 2464 970 2464 970 2599 835 2599Z" fill="#00CC5C" fill-rule="evenodd"/><path d="M767.5 2493.32C746.888 2493.32 730.178 2510.03 730.178 2530.64 730.178 2551.25 746.888 2567.96 767.5 2567.96 788.112 2567.96 804.822 2551.25 804.822 2530.64 804.822 2510.03 788.112 2493.32 767.5 2493.32ZM700 2464 835 2464 835 2599 700 2599Z" fill="#00F66F" fill-rule="evenodd"/><rect x="1106" y="2464" width="134" height="135" fill="#15FF7F"/><rect x="970" y="2329" width="135" height="135" fill="#15FF7F"/><rect x="1104" y="2329" width="135" height="135" fill="#00C459"/><rect x="970" y="2464" width="135" height="135" fill="#00C459"/><path d="M1172.5 2358.32C1151.89 2358.32 1135.18 2375.03 1135.18 2395.64 1135.18 2416.25 1151.89 2432.96 1172.5 2432.96 1193.11 2432.96 1209.82 2416.25 1209.82 2395.64 1209.82 2375.03 1193.11 2358.32 1172.5 2358.32ZM1105 2329 1240 2329 1240 2464 1105 2464Z" fill="#00F66F" fill-rule="evenodd"/><path d="M1037.5 2358.32C1016.89 2358.32 1000.18 2375.03 1000.18 2395.64 1000.18 2416.25 1016.89 2432.96 1037.5 2432.96 1058.11 2432.96 1074.82 2416.25 1074.82 2395.64 1074.82 2375.03 1058.11 2358.32 1037.5 2358.32ZM970 2329 1105 2329 1105 2464 970 2464Z" fill="#00CC5C" fill-rule="evenodd"/><path d="M1172.5 2493.32C1151.89 2493.32 1135.18 2510.03 1135.18 2530.64 1135.18 2551.25 1151.89 2567.96 1172.5 2567.96 1193.11 2567.96 1209.82 2551.25 1209.82 2530.64 1209.82 2510.03 1193.11 2493.32 1172.5 2493.32ZM1105 2464 1240 2464 1240 2599 1105 2599Z" fill="#00CC5C" fill-rule="evenodd"/><path d="M1037.5 2493.32C1016.89 2493.32 1000.18 2510.03 1000.18 2530.64 1000.18 2551.25 1016.89 2567.96 1037.5 2567.96 1058.11 2567.96 1074.82 2551.25 1074.82 2530.64 1074.82 2510.03 1058.11 2493.32 1037.5 2493.32ZM970 2464 1105 2464 1105 2599 970 2599Z" fill="#00F66F" fill-rule="evenodd"/><rect x="298" y="2735" width="134" height="135" fill="#15FF7F"/><rect x="162" y="2599" width="135" height="136" fill="#15FF7F"/><rect x="296" y="2599" width="135" height="136" fill="#00C459"/><rect x="162" y="2735" width="135" height="135" fill="#00C459"/><path d="M365 2628.53C344.54 2628.53 327.954 2645.37 327.954 2666.13 327.954 2686.9 344.54 2703.73 365 2703.73 385.46 2703.73 402.046 2686.9 402.046 2666.13 402.046 2645.37 385.46 2628.53 365 2628.53ZM298 2599 432 2599 432 2735 298 2735Z" fill="#00F66F" fill-rule="evenodd"/><path d="M229.5 2628.53C208.888 2628.53 192.178 2645.37 192.178 2666.13 192.178 2686.9 208.888 2703.73 229.5 2703.73 250.112 2703.73 266.822 2686.9 266.822 2666.13 266.822 2645.37 250.112 2628.53 229.5 2628.53ZM162 2599 297 2599 297 2735 162 2735Z" fill="#00CC5C" fill-rule="evenodd"/><path d="M365 2764.32C344.235 2764.32 327.401 2781.03 327.401 2801.64 327.401 2822.25 344.235 2838.96 365 2838.96 385.765 2838.96 402.599 2822.25 402.599 2801.64 402.599 2781.03 385.765 2764.32 365 2764.32ZM297 2735 433 2735 433 2870 297 2870Z" fill="#00CC5C" fill-rule="evenodd"/><path d="M230 2764.32C209.235 2764.32 192.401 2781.03 192.401 2801.64 192.401 2822.25 209.235 2838.96 230 2838.96 250.765 2838.96 267.599 2822.25 267.599 2801.64 267.599 2781.03 250.765 2764.32 230 2764.32ZM162 2735 298 2735 298 2870 162 2870Z" fill="#00F66F" fill-rule="evenodd"/><rect x="568" y="2735" width="134" height="135" fill="#15FF7F"/><rect x="433" y="2599" width="135" height="136" fill="#15FF7F"/><rect x="566" y="2599" width="135" height="136" fill="#00C459"/><rect x="432" y="2735" width="135" height="135" fill="#00C459"/><path d="M635.5 2628.53C614.888 2628.53 598.178 2645.37 598.178 2666.13 598.178 2686.9 614.888 2703.73 635.5 2703.73 656.112 2703.73 672.822 2686.9 672.822 2666.13 672.822 2645.37 656.112 2628.53 635.5 2628.53ZM568 2599 703 2599 703 2735 568 2735Z" fill="#00F66F" fill-rule="evenodd"/><path d="M500 2628.53C479.235 2628.53 462.401 2645.37 462.401 2666.13 462.401 2686.9 479.235 2703.73 500 2703.73 520.765 2703.73 537.598 2686.9 537.598 2666.13 537.598 2645.37 520.765 2628.53 500 2628.53ZM432 2599 568 2599 568 2735 432 2735Z" fill="#00CC5C" fill-rule="evenodd"/><path d="M635.5 2764.32C614.888 2764.32 598.178 2781.03 598.178 2801.64 598.178 2822.25 614.888 2838.96 635.5 2838.96 656.112 2838.96 672.822 2822.25 672.822 2801.64 672.822 2781.03 656.112 2764.32 635.5 2764.32ZM568 2735 703 2735 703 2870 568 2870Z" fill="#00CC5C" fill-rule="evenodd"/><path d="M500.5 2764.32C479.888 2764.32 463.178 2781.03 463.178 2801.64 463.178 2822.25 479.888 2838.96 500.5 2838.96 521.112 2838.96 537.822 2822.25 537.822 2801.64 537.822 2781.03 521.112 2764.32 500.5 2764.32ZM433 2735 568 2735 568 2870 433 2870Z" fill="#00F66F" fill-rule="evenodd"/><rect x="836" y="2735" width="134" height="135" fill="#15FF7F"/><rect x="700" y="2599" width="135" height="136" fill="#15FF7F"/><rect x="834" y="2599" width="134" height="136" fill="#00C459"/><rect x="699" y="2735" width="135" height="135" fill="#00C459"/><path d="M902.5 2628.53C881.888 2628.53 865.178 2645.37 865.178 2666.13 865.178 2686.9 881.888 2703.73 902.5 2703.73 923.112 2703.73 939.822 2686.9 939.822 2666.13 939.822 2645.37 923.112 2628.53 902.5 2628.53ZM835 2599 970 2599 970 2735 835 2735Z" fill="#00F66F" fill-rule="evenodd"/><path d="M767 2628.53C746.235 2628.53 729.401 2645.37 729.401 2666.13 729.401 2686.9 746.235 2703.73 767 2703.73 787.765 2703.73 804.598 2686.9 804.598 2666.13 804.598 2645.37 787.765 2628.53 767 2628.53ZM699 2599 835 2599 835 2735 699 2735Z" fill="#00CC5C" fill-rule="evenodd"/><path d="M902.5 2764.32C881.888 2764.32 865.178 2781.03 865.178 2801.64 865.178 2822.25 881.888 2838.96 902.5 2838.96 923.112 2838.96 939.822 2822.25 939.822 2801.64 939.822 2781.03 923.112 2764.32 902.5 2764.32ZM835 2735 970 2735 970 2870 835 2870Z" fill="#00CC5C" fill-rule="evenodd"/><path d="M767.5 2764.32C746.888 2764.32 730.178 2781.03 730.178 2801.64 730.178 2822.25 746.888 2838.96 767.5 2838.96 788.112 2838.96 804.822 2822.25 804.822 2801.64 804.822 2781.03 788.112 2764.32 767.5 2764.32ZM700 2735 835 2735 835 2870 700 2870Z" fill="#00F66F" fill-rule="evenodd"/><rect x="1106" y="2735" width="134" height="135" fill="#15FF7F"/><rect x="970" y="2599" width="135" height="136" fill="#15FF7F"/><rect x="1104" y="2599" width="135" height="136" fill="#00C459"/><rect x="970" y="2735" width="135" height="135" fill="#00C459"/><path d="M1172.5 2628.53C1151.89 2628.53 1135.18 2645.37 1135.18 2666.13 1135.18 2686.9 1151.89 2703.73 1172.5 2703.73 1193.11 2703.73 1209.82 2686.9 1209.82 2666.13 1209.82 2645.37 1193.11 2628.53 1172.5 2628.53ZM1105 2599 1240 2599 1240 2735 1105 2735Z" fill="#00F66F" fill-rule="evenodd"/><path d="M1037.5 2628.53C1016.89 2628.53 1000.18 2645.37 1000.18 2666.13 1000.18 2686.9 1016.89 2703.73 1037.5 2703.73 1058.11 2703.73 1074.82 2686.9 1074.82 2666.13 1074.82 2645.37 1058.11 2628.53 1037.5 2628.53ZM970 2599 1105 2599 1105 2735 970 2735Z" fill="#00CC5C" fill-rule="evenodd"/><path d="M1172.5 2764.32C1151.89 2764.32 1135.18 2781.03 1135.18 2801.64 1135.18 2822.25 1151.89 2838.96 1172.5 2838.96 1193.11 2838.96 1209.82 2822.25 1209.82 2801.64 1209.82 2781.03 1193.11 2764.32 1172.5 2764.32ZM1105 2735 1240 2735 1240 2870 1105 2870Z" fill="#00CC5C" fill-rule="evenodd"/><path d="M1037.5 2764.32C1016.89 2764.32 1000.18 2781.03 1000.18 2801.64 1000.18 2822.25 1016.89 2838.96 1037.5 2838.96 1058.11 2838.96 1074.82 2822.25 1074.82 2801.64 1074.82 2781.03 1058.11 2764.32 1037.5 2764.32ZM970 2735 1105 2735 1105 2870 970 2870Z" fill="#00F66F" fill-rule="evenodd"/><rect x="1372" y="1923" width="134" height="135" fill="#15FF7F"/><rect x="1236" y="1787" width="135" height="136" fill="#15FF7F"/><rect x="1370" y="1787" width="135" height="136" fill="#00C459"/><rect x="1236" y="1923" width="135" height="135" fill="#00C459"/><path d="M1439 1816.53C1418.54 1816.53 1401.95 1833.37 1401.95 1854.13 1401.95 1874.9 1418.54 1891.73 1439 1891.73 1459.46 1891.73 1476.05 1874.9 1476.05 1854.13 1476.05 1833.37 1459.46 1816.53 1439 1816.53ZM1372 1787 1506 1787 1506 1923 1372 1923Z" fill="#00F66F" fill-rule="evenodd"/><path d="M1304 1816.53C1283.23 1816.53 1266.4 1833.37 1266.4 1854.13 1266.4 1874.9 1283.23 1891.73 1304 1891.73 1324.77 1891.73 1341.6 1874.9 1341.6 1854.13 1341.6 1833.37 1324.77 1816.53 1304 1816.53ZM1236 1787 1372 1787 1372 1923 1236 1923Z" fill="#00CC5C" fill-rule="evenodd"/><path d="M1439 1952.32C1418.23 1952.32 1401.4 1969.03 1401.4 1989.64 1401.4 2010.25 1418.23 2026.96 1439 2026.96 1459.77 2026.96 1476.6 2010.25 1476.6 1989.64 1476.6 1969.03 1459.77 1952.32 1439 1952.32ZM1371 1923 1507 1923 1507 2058 1371 2058Z" fill="#00CC5C" fill-rule="evenodd"/><path d="M1304 1952.32C1283.23 1952.32 1266.4 1969.03 1266.4 1989.64 1266.4 2010.25 1283.23 2026.96 1304 2026.96 1324.77 2026.96 1341.6 2010.25 1341.6 1989.64 1341.6 1969.03 1324.77 1952.32 1304 1952.32ZM1236 1923 1372 1923 1372 2058 1236 2058Z" fill="#00F66F" fill-rule="evenodd"/><rect x="1643" y="1923" width="133" height="135" fill="#15FF7F"/><rect x="1507" y="1787" width="135" height="136" fill="#15FF7F"/><rect x="1640" y="1787" width="135" height="136" fill="#00C459"/><rect x="1506" y="1923" width="135" height="135" fill="#00C459"/><path d="M1709.5 1816.53C1688.89 1816.53 1672.18 1833.37 1672.18 1854.13 1672.18 1874.9 1688.89 1891.73 1709.5 1891.73 1730.11 1891.73 1746.82 1874.9 1746.82 1854.13 1746.82 1833.37 1730.11 1816.53 1709.5 1816.53ZM1642 1787 1777 1787 1777 1923 1642 1923Z" fill="#00F66F" fill-rule="evenodd"/><path d="M1574 1816.53C1553.23 1816.53 1536.4 1833.37 1536.4 1854.13 1536.4 1874.9 1553.23 1891.73 1574 1891.73 1594.77 1891.73 1611.6 1874.9 1611.6 1854.13 1611.6 1833.37 1594.77 1816.53 1574 1816.53ZM1506 1787 1642 1787 1642 1923 1506 1923Z" fill="#00CC5C" fill-rule="evenodd"/><path d="M1709.5 1952.32C1688.89 1952.32 1672.18 1969.03 1672.18 1989.64 1672.18 2010.25 1688.89 2026.96 1709.5 2026.96 1730.11 2026.96 1746.82 2010.25 1746.82 1989.64 1746.82 1969.03 1730.11 1952.32 1709.5 1952.32ZM1642 1923 1777 1923 1777 2058 1642 2058Z" fill="#00CC5C" fill-rule="evenodd"/><path d="M1574.5 1952.32C1553.89 1952.32 1537.18 1969.03 1537.18 1989.64 1537.18 2010.25 1553.89 2026.96 1574.5 2026.96 1595.11 2026.96 1611.82 2010.25 1611.82 1989.64 1611.82 1969.03 1595.11 1952.32 1574.5 1952.32ZM1507 1923 1642 1923 1642 2058 1507 2058Z" fill="#00F66F" fill-rule="evenodd"/><rect x="1910" y="1923" width="134" height="135" fill="#15FF7F"/><rect x="1774" y="1787" width="135" height="136" fill="#15FF7F"/><rect x="1908" y="1787" width="135" height="136" fill="#00C459"/><rect x="1774" y="1923" width="135" height="135" fill="#00C459"/><path d="M1976.5 1816.53C1955.89 1816.53 1939.18 1833.37 1939.18 1854.13 1939.18 1874.9 1955.89 1891.73 1976.5 1891.73 1997.11 1891.73 2013.82 1874.9 2013.82 1854.13 2013.82 1833.37 1997.11 1816.53 1976.5 1816.53ZM1909 1787 2044 1787 2044 1923 1909 1923Z" fill="#00F66F" fill-rule="evenodd"/><path d="M1841.5 1816.53C1820.89 1816.53 1804.18 1833.37 1804.18 1854.13 1804.18 1874.9 1820.89 1891.73 1841.5 1891.73 1862.11 1891.73 1878.82 1874.9 1878.82 1854.13 1878.82 1833.37 1862.11 1816.53 1841.5 1816.53ZM1774 1787 1909 1787 1909 1923 1774 1923Z" fill="#00CC5C" fill-rule="evenodd"/><path d="M1976.5 1952.32C1955.89 1952.32 1939.18 1969.03 1939.18 1989.64 1939.18 2010.25 1955.89 2026.96 1976.5 2026.96 1997.11 2026.96 2013.82 2010.25 2013.82 1989.64 2013.82 1969.03 1997.11 1952.32 1976.5 1952.32ZM1909 1923 2044 1923 2044 2058 1909 2058Z" fill="#00CC5C" fill-rule="evenodd"/><path d="M1841.5 1952.32C1820.89 1952.32 1804.18 1969.03 1804.18 1989.64 1804.18 2010.25 1820.89 2026.96 1841.5 2026.96 1862.11 2026.96 1878.82 2010.25 1878.82 1989.64 1878.82 1969.03 1862.11 1952.32 1841.5 1952.32ZM1774 1923 1909 1923 1909 2058 1774 2058Z" fill="#00F66F" fill-rule="evenodd"/><rect x="2180" y="1923" width="134" height="135" fill="#15FF7F"/><rect x="2044" y="1787" width="135" height="136" fill="#15FF7F"/><rect x="2178" y="1787" width="135" height="136" fill="#00C459"/><rect x="2044" y="1923" width="135" height="135" fill="#00C459"/><path d="M2246.5 1816.53C2225.89 1816.53 2209.18 1833.37 2209.18 1854.13 2209.18 1874.9 2225.89 1891.73 2246.5 1891.73 2267.11 1891.73 2283.82 1874.9 2283.82 1854.13 2283.82 1833.37 2267.11 1816.53 2246.5 1816.53ZM2179 1787 2314 1787 2314 1923 2179 1923Z" fill="#00F66F" fill-rule="evenodd"/><path d="M2111.5 1816.53C2090.89 1816.53 2074.18 1833.37 2074.18 1854.13 2074.18 1874.9 2090.89 1891.73 2111.5 1891.73 2132.11 1891.73 2148.82 1874.9 2148.82 1854.13 2148.82 1833.37 2132.11 1816.53 2111.5 1816.53ZM2044 1787 2179 1787 2179 1923 2044 1923Z" fill="#00CC5C" fill-rule="evenodd"/><path d="M2246.5 1952.32C2225.89 1952.32 2209.18 1969.03 2209.18 1989.64 2209.18 2010.25 2225.89 2026.96 2246.5 2026.96 2267.11 2026.96 2283.82 2010.25 2283.82 1989.64 2283.82 1969.03 2267.11 1952.32 2246.5 1952.32ZM2179 1923 2314 1923 2314 2058 2179 2058Z" fill="#00CC5C" fill-rule="evenodd"/><path d="M2111.5 1952.32C2090.89 1952.32 2074.18 1969.03 2074.18 1989.64 2074.18 2010.25 2090.89 2026.96 2111.5 2026.96 2132.11 2026.96 2148.82 2010.25 2148.82 1989.64 2148.82 1969.03 2132.11 1952.32 2111.5 1952.32ZM2044 1923 2179 1923 2179 2058 2044 2058Z" fill="#00F66F" fill-rule="evenodd"/><rect x="1373" y="2193" width="133" height="136" fill="#15FF7F"/><rect x="1237" y="2058" width="135" height="135" fill="#15FF7F"/><rect x="1370" y="2058" width="135" height="135" fill="#00C459"/><rect x="1236" y="2193" width="135" height="136" fill="#00C459"/><path d="M1439.5 2087.32C1418.89 2087.32 1402.18 2104.03 1402.18 2124.64 1402.18 2145.25 1418.89 2161.96 1439.5 2161.96 1460.11 2161.96 1476.82 2145.25 1476.82 2124.64 1476.82 2104.03 1460.11 2087.32 1439.5 2087.32ZM1372 2058 1507 2058 1507 2193 1372 2193Z" fill="#00F66F" fill-rule="evenodd"/><path d="M1304 2087.32C1283.23 2087.32 1266.4 2104.03 1266.4 2124.64 1266.4 2145.25 1283.23 2161.96 1304 2161.96 1324.77 2161.96 1341.6 2145.25 1341.6 2124.64 1341.6 2104.03 1324.77 2087.32 1304 2087.32ZM1236 2058 1372 2058 1372 2193 1236 2193Z" fill="#00CC5C" fill-rule="evenodd"/><path d="M1439.5 2222.53C1418.89 2222.53 1402.18 2239.37 1402.18 2260.13 1402.18 2280.9 1418.89 2297.73 1439.5 2297.73 1460.11 2297.73 1476.82 2280.9 1476.82 2260.13 1476.82 2239.37 1460.11 2222.53 1439.5 2222.53ZM1372 2193 1507 2193 1507 2329 1372 2329Z" fill="#00CC5C" fill-rule="evenodd"/><path d="M1304.5 2222.53C1283.89 2222.53 1267.18 2239.37 1267.18 2260.13 1267.18 2280.9 1283.89 2297.73 1304.5 2297.73 1325.11 2297.73 1341.82 2280.9 1341.82 2260.13 1341.82 2239.37 1325.11 2222.53 1304.5 2222.53ZM1237 2193 1372 2193 1372 2329 1237 2329Z" fill="#00F66F" fill-rule="evenodd"/><rect x="1643" y="2193" width="134" height="136" fill="#15FF7F"/><rect x="1507" y="2058" width="135" height="135" fill="#15FF7F"/><rect x="1641" y="2058" width="135" height="135" fill="#00C459"/><rect x="1507" y="2193" width="135" height="136" fill="#00C459"/><path d="M1709.5 2087.32C1688.89 2087.32 1672.18 2104.03 1672.18 2124.64 1672.18 2145.25 1688.89 2161.96 1709.5 2161.96 1730.11 2161.96 1746.82 2145.25 1746.82 2124.64 1746.82 2104.03 1730.11 2087.32 1709.5 2087.32ZM1642 2058 1777 2058 1777 2193 1642 2193Z" fill="#00F66F" fill-rule="evenodd"/><path d="M1574.5 2087.32C1553.89 2087.32 1537.18 2104.03 1537.18 2124.64 1537.18 2145.25 1553.89 2161.96 1574.5 2161.96 1595.11 2161.96 1611.82 2145.25 1611.82 2124.64 1611.82 2104.03 1595.11 2087.32 1574.5 2087.32ZM1507 2058 1642 2058 1642 2193 1507 2193Z" fill="#00CC5C" fill-rule="evenodd"/><path d="M1709.5 2222.53C1688.89 2222.53 1672.18 2239.37 1672.18 2260.13 1672.18 2280.9 1688.89 2297.73 1709.5 2297.73 1730.11 2297.73 1746.82 2280.9 1746.82 2260.13 1746.82 2239.37 1730.11 2222.53 1709.5 2222.53ZM1642 2193 1777 2193 1777 2329 1642 2329Z" fill="#00CC5C" fill-rule="evenodd"/><path d="M1574.5 2222.53C1553.89 2222.53 1537.18 2239.37 1537.18 2260.13 1537.18 2280.9 1553.89 2297.73 1574.5 2297.73 1595.11 2297.73 1611.82 2280.9 1611.82 2260.13 1611.82 2239.37 1595.11 2222.53 1574.5 2222.53ZM1507 2193 1642 2193 1642 2329 1507 2329Z" fill="#00F66F" fill-rule="evenodd"/><rect x="1910" y="2193" width="134" height="136" fill="#15FF7F"/><rect x="1774" y="2058" width="135" height="135" fill="#15FF7F"/><rect x="1908" y="2058" width="135" height="135" fill="#00C459"/><rect x="1774" y="2193" width="135" height="136" fill="#00C459"/><path d="M1976.5 2087.32C1955.89 2087.32 1939.18 2104.03 1939.18 2124.64 1939.18 2145.25 1955.89 2161.96 1976.5 2161.96 1997.11 2161.96 2013.82 2145.25 2013.82 2124.64 2013.82 2104.03 1997.11 2087.32 1976.5 2087.32ZM1909 2058 2044 2058 2044 2193 1909 2193Z" fill="#00F66F" fill-rule="evenodd"/><path d="M1841.5 2087.32C1820.89 2087.32 1804.18 2104.03 1804.18 2124.64 1804.18 2145.25 1820.89 2161.96 1841.5 2161.96 1862.11 2161.96 1878.82 2145.25 1878.82 2124.64 1878.82 2104.03 1862.11 2087.32 1841.5 2087.32ZM1774 2058 1909 2058 1909 2193 1774 2193Z" fill="#00CC5C" fill-rule="evenodd"/><path d="M1976.5 2222.53C1955.89 2222.53 1939.18 2239.37 1939.18 2260.13 1939.18 2280.9 1955.89 2297.73 1976.5 2297.73 1997.11 2297.73 2013.82 2280.9 2013.82 2260.13 2013.82 2239.37 1997.11 2222.53 1976.5 2222.53ZM1909 2193 2044 2193 2044 2329 1909 2329Z" fill="#00CC5C" fill-rule="evenodd"/><path d="M1841.5 2222.53C1820.89 2222.53 1804.18 2239.37 1804.18 2260.13 1804.18 2280.9 1820.89 2297.73 1841.5 2297.73 1862.11 2297.73 1878.82 2280.9 1878.82 2260.13 1878.82 2239.37 1862.11 2222.53 1841.5 2222.53ZM1774 2193 1909 2193 1909 2329 1774 2329Z" fill="#00F66F" fill-rule="evenodd"/><rect x="2180" y="2193" width="134" height="136" fill="#15FF7F"/><rect x="2044" y="2058" width="135" height="135" fill="#15FF7F"/><rect x="2178" y="2058" width="135" height="135" fill="#00C459"/><rect x="2044" y="2193" width="135" height="136" fill="#00C459"/><path d="M2246.5 2087.32C2225.89 2087.32 2209.18 2104.03 2209.18 2124.64 2209.18 2145.25 2225.89 2161.96 2246.5 2161.96 2267.11 2161.96 2283.82 2145.25 2283.82 2124.64 2283.82 2104.03 2267.11 2087.32 2246.5 2087.32ZM2179 2058 2314 2058 2314 2193 2179 2193Z" fill="#00F66F" fill-rule="evenodd"/><path d="M2111.5 2087.32C2090.89 2087.32 2074.18 2104.03 2074.18 2124.64 2074.18 2145.25 2090.89 2161.96 2111.5 2161.96 2132.11 2161.96 2148.82 2145.25 2148.82 2124.64 2148.82 2104.03 2132.11 2087.32 2111.5 2087.32ZM2044 2058 2179 2058 2179 2193 2044 2193Z" fill="#00CC5C" fill-rule="evenodd"/><path d="M2246.5 2222.53C2225.89 2222.53 2209.18 2239.37 2209.18 2260.13 2209.18 2280.9 2225.89 2297.73 2246.5 2297.73 2267.11 2297.73 2283.82 2280.9 2283.82 2260.13 2283.82 2239.37 2267.11 2222.53 2246.5 2222.53ZM2179 2193 2314 2193 2314 2329 2179 2329Z" fill="#00CC5C" fill-rule="evenodd"/><path d="M2111.5 2222.53C2090.89 2222.53 2074.18 2239.37 2074.18 2260.13 2074.18 2280.9 2090.89 2297.73 2111.5 2297.73 2132.11 2297.73 2148.82 2280.9 2148.82 2260.13 2148.82 2239.37 2132.11 2222.53 2111.5 2222.53ZM2044 2193 2179 2193 2179 2329 2044 2329Z" fill="#00F66F" fill-rule="evenodd"/><rect x="1373" y="2464" width="133" height="135" fill="#15FF7F"/><rect x="1237" y="2329" width="135" height="135" fill="#15FF7F"/><rect x="1370" y="2329" width="135" height="135" fill="#00C459"/><rect x="1236" y="2464" width="135" height="135" fill="#00C459"/><path d="M1439.5 2358.32C1418.89 2358.32 1402.18 2375.03 1402.18 2395.64 1402.18 2416.25 1418.89 2432.96 1439.5 2432.96 1460.11 2432.96 1476.82 2416.25 1476.82 2395.64 1476.82 2375.03 1460.11 2358.32 1439.5 2358.32ZM1372 2329 1507 2329 1507 2464 1372 2464Z" fill="#00F66F" fill-rule="evenodd"/><path d="M1304 2358.32C1283.23 2358.32 1266.4 2375.03 1266.4 2395.64 1266.4 2416.25 1283.23 2432.96 1304 2432.96 1324.77 2432.96 1341.6 2416.25 1341.6 2395.64 1341.6 2375.03 1324.77 2358.32 1304 2358.32ZM1236 2329 1372 2329 1372 2464 1236 2464Z" fill="#00CC5C" fill-rule="evenodd"/><path d="M1439.5 2493.32C1418.89 2493.32 1402.18 2510.03 1402.18 2530.64 1402.18 2551.25 1418.89 2567.96 1439.5 2567.96 1460.11 2567.96 1476.82 2551.25 1476.82 2530.64 1476.82 2510.03 1460.11 2493.32 1439.5 2493.32ZM1372 2464 1507 2464 1507 2599 1372 2599Z" fill="#00CC5C" fill-rule="evenodd"/><path d="M1304.5 2493.32C1283.89 2493.32 1267.18 2510.03 1267.18 2530.64 1267.18 2551.25 1283.89 2567.96 1304.5 2567.96 1325.11 2567.96 1341.82 2551.25 1341.82 2530.64 1341.82 2510.03 1325.11 2493.32 1304.5 2493.32ZM1237 2464 1372 2464 1372 2599 1237 2599Z" fill="#00F66F" fill-rule="evenodd"/><rect x="1643" y="2464" width="134" height="135" fill="#15FF7F"/><rect x="1507" y="2329" width="135" height="135" fill="#15FF7F"/><rect x="1641" y="2329" width="135" height="135" fill="#00C459"/><rect x="1507" y="2464" width="135" height="135" fill="#00C459"/><path d="M1709.5 2358.32C1688.89 2358.32 1672.18 2375.03 1672.18 2395.64 1672.18 2416.25 1688.89 2432.96 1709.5 2432.96 1730.11 2432.96 1746.82 2416.25 1746.82 2395.64 1746.82 2375.03 1730.11 2358.32 1709.5 2358.32ZM1642 2329 1777 2329 1777 2464 1642 2464Z" fill="#00F66F" fill-rule="evenodd"/><path d="M1574.5 2358.32C1553.89 2358.32 1537.18 2375.03 1537.18 2395.64 1537.18 2416.25 1553.89 2432.96 1574.5 2432.96 1595.11 2432.96 1611.82 2416.25 1611.82 2395.64 1611.82 2375.03 1595.11 2358.32 1574.5 2358.32ZM1507 2329 1642 2329 1642 2464 1507 2464Z" fill="#00CC5C" fill-rule="evenodd"/><path d="M1709.5 2493.32C1688.89 2493.32 1672.18 2510.03 1672.18 2530.64 1672.18 2551.25 1688.89 2567.96 1709.5 2567.96 1730.11 2567.96 1746.82 2551.25 1746.82 2530.64 1746.82 2510.03 1730.11 2493.32 1709.5 2493.32ZM1642 2464 1777 2464 1777 2599 1642 2599Z" fill="#00CC5C" fill-rule="evenodd"/><path d="M1574.5 2493.32C1553.89 2493.32 1537.18 2510.03 1537.18 2530.64 1537.18 2551.25 1553.89 2567.96 1574.5 2567.96 1595.11 2567.96 1611.82 2551.25 1611.82 2530.64 1611.82 2510.03 1595.11 2493.32 1574.5 2493.32ZM1507 2464 1642 2464 1642 2599 1507 2599Z" fill="#00F66F" fill-rule="evenodd"/><rect x="1910" y="2464" width="134" height="135" fill="#15FF7F"/><rect x="1774" y="2329" width="135" height="135" fill="#15FF7F"/><rect x="1908" y="2329" width="135" height="135" fill="#00C459"/><rect x="1774" y="2464" width="135" height="135" fill="#00C459"/><path d="M1976.5 2358.32C1955.89 2358.32 1939.18 2375.03 1939.18 2395.64 1939.18 2416.25 1955.89 2432.96 1976.5 2432.96 1997.11 2432.96 2013.82 2416.25 2013.82 2395.64 2013.82 2375.03 1997.11 2358.32 1976.5 2358.32ZM1909 2329 2044 2329 2044 2464 1909 2464Z" fill="#00F66F" fill-rule="evenodd"/><path d="M1841.5 2358.32C1820.89 2358.32 1804.18 2375.03 1804.18 2395.64 1804.18 2416.25 1820.89 2432.96 1841.5 2432.96 1862.11 2432.96 1878.82 2416.25 1878.82 2395.64 1878.82 2375.03 1862.11 2358.32 1841.5 2358.32ZM1774 2329 1909 2329 1909 2464 1774 2464Z" fill="#00CC5C" fill-rule="evenodd"/><path d="M1976.5 2493.32C1955.89 2493.32 1939.18 2510.03 1939.18 2530.64 1939.18 2551.25 1955.89 2567.96 1976.5 2567.96 1997.11 2567.96 2013.82 2551.25 2013.82 2530.64 2013.82 2510.03 1997.11 2493.32 1976.5 2493.32ZM1909 2464 2044 2464 2044 2599 1909 2599Z" fill="#00CC5C" fill-rule="evenodd"/><path d="M1841.5 2493.32C1820.89 2493.32 1804.18 2510.03 1804.18 2530.64 1804.18 2551.25 1820.89 2567.96 1841.5 2567.96 1862.11 2567.96 1878.82 2551.25 1878.82 2530.64 1878.82 2510.03 1862.11 2493.32 1841.5 2493.32ZM1774 2464 1909 2464 1909 2599 1774 2599Z" fill="#00F66F" fill-rule="evenodd"/><rect x="2180" y="2464" width="134" height="135" fill="#15FF7F"/><rect x="2044" y="2329" width="135" height="135" fill="#15FF7F"/><rect x="2178" y="2329" width="135" height="135" fill="#00C459"/><rect x="2044" y="2464" width="135" height="135" fill="#00C459"/><path d="M2246.5 2358.32C2225.89 2358.32 2209.18 2375.03 2209.18 2395.64 2209.18 2416.25 2225.89 2432.96 2246.5 2432.96 2267.11 2432.96 2283.82 2416.25 2283.82 2395.64 2283.82 2375.03 2267.11 2358.32 2246.5 2358.32ZM2179 2329 2314 2329 2314 2464 2179 2464Z" fill="#00F66F" fill-rule="evenodd"/><path d="M2111.5 2358.32C2090.89 2358.32 2074.18 2375.03 2074.18 2395.64 2074.18 2416.25 2090.89 2432.96 2111.5 2432.96 2132.11 2432.96 2148.82 2416.25 2148.82 2395.64 2148.82 2375.03 2132.11 2358.32 2111.5 2358.32ZM2044 2329 2179 2329 2179 2464 2044 2464Z" fill="#00CC5C" fill-rule="evenodd"/><path d="M2246.5 2493.32C2225.89 2493.32 2209.18 2510.03 2209.18 2530.64 2209.18 2551.25 2225.89 2567.96 2246.5 2567.96 2267.11 2567.96 2283.82 2551.25 2283.82 2530.64 2283.82 2510.03 2267.11 2493.32 2246.5 2493.32ZM2179 2464 2314 2464 2314 2599 2179 2599Z" fill="#00CC5C" fill-rule="evenodd"/><path d="M2111.5 2493.32C2090.89 2493.32 2074.18 2510.03 2074.18 2530.64 2074.18 2551.25 2090.89 2567.96 2111.5 2567.96 2132.11 2567.96 2148.82 2551.25 2148.82 2530.64 2148.82 2510.03 2132.11 2493.32 2111.5 2493.32ZM2044 2464 2179 2464 2179 2599 2044 2599Z" fill="#00F66F" fill-rule="evenodd"/><rect x="1373" y="2735" width="134" height="135" fill="#15FF7F"/><rect x="1237" y="2599" width="135" height="136" fill="#15FF7F"/><rect x="1371" y="2599" width="134" height="136" fill="#00C459"/><rect x="1236" y="2735" width="135" height="135" fill="#00C459"/><path d="M1439.5 2628.53C1418.89 2628.53 1402.18 2645.37 1402.18 2666.13 1402.18 2686.9 1418.89 2703.73 1439.5 2703.73 1460.11 2703.73 1476.82 2686.9 1476.82 2666.13 1476.82 2645.37 1460.11 2628.53 1439.5 2628.53ZM1372 2599 1507 2599 1507 2735 1372 2735Z" fill="#00F66F" fill-rule="evenodd"/><path d="M1304 2628.53C1283.23 2628.53 1266.4 2645.37 1266.4 2666.13 1266.4 2686.9 1283.23 2703.73 1304 2703.73 1324.77 2703.73 1341.6 2686.9 1341.6 2666.13 1341.6 2645.37 1324.77 2628.53 1304 2628.53ZM1236 2599 1372 2599 1372 2735 1236 2735Z" fill="#00CC5C" fill-rule="evenodd"/><path d="M1439.5 2764.32C1418.89 2764.32 1402.18 2781.03 1402.18 2801.64 1402.18 2822.25 1418.89 2838.96 1439.5 2838.96 1460.11 2838.96 1476.82 2822.25 1476.82 2801.64 1476.82 2781.03 1460.11 2764.32 1439.5 2764.32ZM1372 2735 1507 2735 1507 2870 1372 2870Z" fill="#00CC5C" fill-rule="evenodd"/><path d="M1304.5 2764.32C1283.89 2764.32 1267.18 2781.03 1267.18 2801.64 1267.18 2822.25 1283.89 2838.96 1304.5 2838.96 1325.11 2838.96 1341.82 2822.25 1341.82 2801.64 1341.82 2781.03 1325.11 2764.32 1304.5 2764.32ZM1237 2735 1372 2735 1372 2870 1237 2870Z" fill="#00F66F" fill-rule="evenodd"/><rect x="1643" y="2735" width="134" height="135" fill="#15FF7F"/><rect x="1507" y="2599" width="135" height="136" fill="#15FF7F"/><rect x="1641" y="2599" width="135" height="136" fill="#00C459"/><rect x="1507" y="2735" width="135" height="135" fill="#00C459"/><path d="M1709.5 2628.53C1688.89 2628.53 1672.18 2645.37 1672.18 2666.13 1672.18 2686.9 1688.89 2703.73 1709.5 2703.73 1730.11 2703.73 1746.82 2686.9 1746.82 2666.13 1746.82 2645.37 1730.11 2628.53 1709.5 2628.53ZM1642 2599 1777 2599 1777 2735 1642 2735Z" fill="#00F66F" fill-rule="evenodd"/><path d="M1574.5 2628.53C1553.89 2628.53 1537.18 2645.37 1537.18 2666.13 1537.18 2686.9 1553.89 2703.73 1574.5 2703.73 1595.11 2703.73 1611.82 2686.9 1611.82 2666.13 1611.82 2645.37 1595.11 2628.53 1574.5 2628.53ZM1507 2599 1642 2599 1642 2735 1507 2735Z" fill="#00CC5C" fill-rule="evenodd"/><path d="M1709.5 2764.32C1688.89 2764.32 1672.18 2781.03 1672.18 2801.64 1672.18 2822.25 1688.89 2838.96 1709.5 2838.96 1730.11 2838.96 1746.82 2822.25 1746.82 2801.64 1746.82 2781.03 1730.11 2764.32 1709.5 2764.32ZM1642 2735 1777 2735 1777 2870 1642 2870Z" fill="#00CC5C" fill-rule="evenodd"/><path d="M1574.5 2764.32C1553.89 2764.32 1537.18 2781.03 1537.18 2801.64 1537.18 2822.25 1553.89 2838.96 1574.5 2838.96 1595.11 2838.96 1611.82 2822.25 1611.82 2801.64 1611.82 2781.03 1595.11 2764.32 1574.5 2764.32ZM1507 2735 1642 2735 1642 2870 1507 2870Z" fill="#00F66F" fill-rule="evenodd"/><rect x="1910" y="2735" width="134" height="135" fill="#15FF7F"/><rect x="1774" y="2599" width="135" height="136" fill="#15FF7F"/><rect x="1908" y="2599" width="135" height="136" fill="#00C459"/><rect x="1774" y="2735" width="135" height="135" fill="#00C459"/><path d="M1976.5 2628.53C1955.89 2628.53 1939.18 2645.37 1939.18 2666.13 1939.18 2686.9 1955.89 2703.73 1976.5 2703.73 1997.11 2703.73 2013.82 2686.9 2013.82 2666.13 2013.82 2645.37 1997.11 2628.53 1976.5 2628.53ZM1909 2599 2044 2599 2044 2735 1909 2735Z" fill="#00F66F" fill-rule="evenodd"/><path d="M1841.5 2628.53C1820.89 2628.53 1804.18 2645.37 1804.18 2666.13 1804.18 2686.9 1820.89 2703.73 1841.5 2703.73 1862.11 2703.73 1878.82 2686.9 1878.82 2666.13 1878.82 2645.37 1862.11 2628.53 1841.5 2628.53ZM1774 2599 1909 2599 1909 2735 1774 2735Z" fill="#00CC5C" fill-rule="evenodd"/><path d="M1976.5 2764.32C1955.89 2764.32 1939.18 2781.03 1939.18 2801.64 1939.18 2822.25 1955.89 2838.96 1976.5 2838.96 1997.11 2838.96 2013.82 2822.25 2013.82 2801.64 2013.82 2781.03 1997.11 2764.32 1976.5 2764.32ZM1909 2735 2044 2735 2044 2870 1909 2870Z" fill="#00CC5C" fill-rule="evenodd"/><path d="M1841.5 2764.32C1820.89 2764.32 1804.18 2781.03 1804.18 2801.64 1804.18 2822.25 1820.89 2838.96 1841.5 2838.96 1862.11 2838.96 1878.82 2822.25 1878.82 2801.64 1878.82 2781.03 1862.11 2764.32 1841.5 2764.32ZM1774 2735 1909 2735 1909 2870 1774 2870Z" fill="#00F66F" fill-rule="evenodd"/><rect x="2180" y="2735" width="134" height="135" fill="#15FF7F"/><rect x="2044" y="2599" width="135" height="136" fill="#15FF7F"/><rect x="2178" y="2599" width="135" height="136" fill="#00C459"/><rect x="2044" y="2735" width="135" height="135" fill="#00C459"/><path d="M2246.5 2628.53C2225.89 2628.53 2209.18 2645.37 2209.18 2666.13 2209.18 2686.9 2225.89 2703.73 2246.5 2703.73 2267.11 2703.73 2283.82 2686.9 2283.82 2666.13 2283.82 2645.37 2267.11 2628.53 2246.5 2628.53ZM2179 2599 2314 2599 2314 2735 2179 2735Z" fill="#00F66F" fill-rule="evenodd"/><path d="M2111.5 2628.53C2090.89 2628.53 2074.18 2645.37 2074.18 2666.13 2074.18 2686.9 2090.89 2703.73 2111.5 2703.73 2132.11 2703.73 2148.82 2686.9 2148.82 2666.13 2148.82 2645.37 2132.11 2628.53 2111.5 2628.53ZM2044 2599 2179 2599 2179 2735 2044 2735Z" fill="#00CC5C" fill-rule="evenodd"/><path d="M2247 2764.32C2226.24 2764.32 2209.4 2781.03 2209.4 2801.64 2209.4 2822.25 2226.24 2838.96 2247 2838.96 2267.77 2838.96 2284.6 2822.25 2284.6 2801.64 2284.6 2781.03 2267.77 2764.32 2247 2764.32ZM2179 2735 2315 2735 2315 2870 2179 2870Z" fill="#00CC5C" fill-rule="evenodd"/><path d="M2112 2764.32C2091.23 2764.32 2074.4 2781.03 2074.4 2801.64 2074.4 2822.25 2091.23 2838.96 2112 2838.96 2132.76 2838.96 2149.6 2822.25 2149.6 2801.64 2149.6 2781.03 2132.76 2764.32 2112 2764.32ZM2044 2735 2180 2735 2180 2870 2044 2870Z" fill="#00F66F" fill-rule="evenodd"/></g></svg>