<svg width="2156" height="2156" xmlns="http://www.w3.org/2000/svg" xmlns:xlink="http://www.w3.org/1999/xlink" xml:space="preserve" overflow="hidden"><defs><clipPath id="clip0"><rect x="198" y="710" width="2156" height="2156"/></clipPath></defs><g clip-path="url(#clip0)" transform="translate(-198 -710)"><rect x="198" y="710" width="154" height="154" fill="#00B050"/><rect x="352" y="710" width="154" height="154" fill="#00C459"/><rect x="506" y="710" width="154" height="154" fill="#00B050"/><rect x="660" y="710" width="154" height="154" fill="#00C459"/><rect x="814" y="710" width="154" height="154" fill="#00B050"/><rect x="968" y="710" width="154" height="154" fill="#00C459"/><rect x="1122" y="710" width="154" height="154" fill="#00B050"/><rect x="1276" y="710" width="154" height="154" fill="#00C459"/><rect x="1430" y="710" width="154" height="154" fill="#00B050"/><rect x="1584" y="710" width="154" height="154" fill="#00C459"/><rect x="1738" y="710" width="154" height="154" fill="#00B050"/><rect x="1892" y="710" width="154" height="154" fill="#00C459"/><rect x="2046" y="710" width="154" height="154" fill="#00B050"/><rect x="2200" y="710" width="154" height="154" fill="#00C459"/><rect x="2200" y="864" width="154" height="154" fill="#00B050"/><rect x="198" y="864" width="154" height="154" fill="#00C459"/><rect x="352" y="864" width="154" height="154" fill="#00B050"/><rect x="506" y="864" width="154" height="154" fill="#00C459"/><rect x="660" y="864" width="154" height="154" fill="#00B050"/><rect x="814" y="864" width="154" height="154" fill="#00C459"/><rect x="968" y="864" width="154" height="154" fill="#00B050"/><rect x="1122" y="864" width="154" height="154" fill="#00C459"/><rect x="1276" y="864" width="154" height="154" fill="#00B050"/><rect x="1430" y="864" width="154" height="154" fill="#00C459"/><rect x="1584" y="864" width="154" height="154" fill="#00B050"/><rect x="1738" y="864" width="154" height="154" fill="#00C459"/><rect x="1892" y="864" width="154" height="154" fill="#00B050"/><rect x="2046" y="864" width="154" height="154" fill="#00C459"/><rect x="198" y="1018" width="154" height="154" fill="#00B050"/><rect x="352" y="1018" width="154" height="154" fill="#00C459"/><rect x="506" y="1018" width="154" height="154" fill="#00B050"/><rect x="660" y="1018" width="154" height="154" fill="#00C459"/><rect x="814" y="1018" width="154" height="154" fill="#00B050"/><rect x="968" y="1018" width="154" height="154" fill="#00C459"/><rect x="1122" y="1018" width="154" height="154" fill="#00B050"/><rect x="1276" y="1018" width="154" height="154" fill="#00C459"/><rect x="1430" y="1018" width="154" height="154" fill="#00B050"/><rect x="1584" y="1018" width="154" height="154" fill="#00C459"/><rect x="1738" y="1018" width="154" height="154" fill="#00B050"/><rect x="1892" y="1018" width="154" height="154" fill="#00C459"/><rect x="2046" y="1018" width="154" height="154" fill="#00B050"/><rect x="2200" y="1018" width="154" height="154" fill="#00C459"/><rect x="2200" y="1172" width="154" height="154" fill="#00B050"/><rect x="198" y="1172" width="154" height="154" fill="#00C459"/><rect x="352" y="1172" width="154" height="154" fill="#00B050"/><rect x="506" y="1172" width="154" height="154" fill="#00C459"/><rect x="660" y="1172" width="154" height="154" fill="#00B050"/><rect x="814" y="1172" width="154" height="154" fill="#00C459"/><rect x="968" y="1172" width="154" height="154" fill="#00B050"/><rect x="1122" y="1172" width="154" height="154" fill="#00C459"/><rect x="1276" y="1172" width="154" height="154" fill="#00B050"/><rect x="1430" y="1172" width="154" height="154" fill="#00C459"/><rect x="1584" y="1172" width="154" height="154" fill="#00B050"/><rect x="1738" y="1172" width="154" height="154" fill="#00C459"/><rect x="1892" y="1172" width="154" height="154" fill="#00B050"/><rect x="2046" y="1172" width="154" height="154" fill="#00C459"/><rect x="198" y="1326" width="154" height="154" fill="#00B050"/><rect x="352" y="1326" width="154" height="154" fill="#00C459"/><rect x="506" y="1326" width="154" height="154" fill="#00B050"/><rect x="660" y="1326" width="154" height="154" fill="#00C459"/><rect x="814" y="1326" width="154" height="154" fill="#00B050"/><rect x="968" y="1326" width="154" height="154" fill="#00C459"/><rect x="1122" y="1326" width="154" height="154" fill="#00B050"/><rect x="1276" y="1326" width="154" height="154" fill="#00C459"/><rect x="1430" y="1326" width="154" height="154" fill="#00B050"/><rect x="1584" y="1326" width="154" height="154" fill="#00C459"/><rect x="1738" y="1326" width="154" height="154" fill="#00B050"/><rect x="1892" y="1326" width="154" height="154" fill="#00C459"/><rect x="2046" y="1326" width="154" height="154" fill="#00B050"/><rect x="2200" y="1326" width="154" height="154" fill="#00C459"/><rect x="2200" y="1480" width="154" height="154" fill="#00B050"/><rect x="198" y="1480" width="154" height="154" fill="#00C459"/><rect x="352" y="1480" width="154" height="154" fill="#00B050"/><rect x="506" y="1480" width="154" height="154" fill="#00C459"/><rect x="660" y="1480" width="154" height="154" fill="#00B050"/><rect x="814" y="1480" width="154" height="154" fill="#00C459"/><rect x="968" y="1480" width="154" height="154" fill="#00B050"/><rect x="1122" y="1480" width="154" height="154" fill="#00C459"/><rect x="1276" y="1480" width="154" height="154" fill="#00B050"/><rect x="1430" y="1480" width="154" height="154" fill="#00C459"/><rect x="1584" y="1480" width="154" height="154" fill="#00B050"/><rect x="1738" y="1480" width="154" height="154" fill="#00C459"/><rect x="1892" y="1480" width="154" height="154" fill="#00B050"/><rect x="2046" y="1480" width="154" height="154" fill="#00C459"/><rect x="198" y="1634" width="154" height="154" fill="#00B050"/><rect x="352" y="1634" width="154" height="154" fill="#00C459"/><rect x="506" y="1634" width="154" height="154" fill="#00B050"/><rect x="660" y="1634" width="154" height="154" fill="#00C459"/><rect x="814" y="1634" width="154" height="154" fill="#00B050"/><rect x="968" y="1634" width="154" height="154" fill="#00C459"/><rect x="1122" y="1634" width="154" height="154" fill="#00B050"/><rect x="1276" y="1634" width="154" height="154" fill="#00C459"/><rect x="1430" y="1634" width="154" height="154" fill="#00B050"/><rect x="1584" y="1634" width="154" height="154" fill="#00C459"/><rect x="1738" y="1634" width="154" height="154" fill="#00B050"/><rect x="1892" y="1634" width="154" height="154" fill="#00C459"/><rect x="2046" y="1634" width="154" height="154" fill="#00B050"/><rect x="2200" y="1634" width="154" height="154" fill="#00C459"/><rect x="2200" y="1788" width="154" height="154" fill="#00B050"/><rect x="198" y="1788" width="154" height="154" fill="#00C459"/><rect x="352" y="1788" width="154" height="154" fill="#00B050"/><rect x="506" y="1788" width="154" height="154" fill="#00C459"/><rect x="660" y="1788" width="154" height="154" fill="#00B050"/><rect x="814" y="1788" width="154" height="154" fill="#00C459"/><rect x="968" y="1788" width="154" height="154" fill="#00B050"/><rect x="1122" y="1788" width="154" height="154" fill="#00C459"/><rect x="1276" y="1788" width="154" height="154" fill="#00B050"/><rect x="1430" y="1788" width="154" height="154" fill="#00C459"/><rect x="1584" y="1788" width="154" height="154" fill="#00B050"/><rect x="1738" y="1788" width="154" height="154" fill="#00C459"/><rect x="1892" y="1788" width="154" height="154" fill="#00B050"/><rect x="2046" y="1788" width="154" height="154" fill="#00C459"/><rect x="198" y="1942" width="154" height="154" fill="#00B050"/><rect x="352" y="1942" width="154" height="154" fill="#00C459"/><rect x="506" y="1942" width="154" height="154" fill="#00B050"/><rect x="660" y="1942" width="154" height="154" fill="#00C459"/><rect x="814" y="1942" width="154" height="154" fill="#00B050"/><rect x="968" y="1942" width="154" height="154" fill="#00C459"/><rect x="1122" y="1942" width="154" height="154" fill="#00B050"/><rect x="1276" y="1942" width="154" height="154" fill="#00C459"/><rect x="1430" y="1942" width="154" height="154" fill="#00B050"/><rect x="1584" y="1942" width="154" height="154" fill="#00C459"/><rect x="1738" y="1942" width="154" height="154" fill="#00B050"/><rect x="1892" y="1942" width="154" height="154" fill="#00C459"/><rect x="2046" y="1942" width="154" height="154" fill="#00B050"/><rect x="2200" y="1942" width="154" height="154" fill="#00C459"/><rect x="2200" y="2096" width="154" height="154" fill="#00B050"/><rect x="198" y="2096" width="154" height="154" fill="#00C459"/><rect x="352" y="2096" width="154" height="154" fill="#00B050"/><rect x="506" y="2096" width="154" height="154" fill="#00C459"/><rect x="660" y="2096" width="154" height="154" fill="#00B050"/><rect x="814" y="2096" width="154" height="154" fill="#00C459"/><rect x="968" y="2096" width="154" height="154" fill="#00B050"/><rect x="1122" y="2096" width="154" height="154" fill="#00C459"/><rect x="1276" y="2096" width="154" height="154" fill="#00B050"/><rect x="1430" y="2096" width="154" height="154" fill="#00C459"/><rect x="1584" y="2096" width="154" height="154" fill="#00B050"/><rect x="1738" y="2096" width="154" height="154" fill="#00C459"/><rect x="1892" y="2096" width="154" height="154" fill="#00B050"/><rect x="2046" y="2096" width="154" height="154" fill="#00C459"/><rect x="198" y="2250" width="154" height="154" fill="#00B050"/><rect x="352" y="2250" width="154" height="154" fill="#00C459"/><rect x="506" y="2250" width="154" height="154" fill="#00B050"/><rect x="660" y="2250" width="154" height="154" fill="#00C459"/><rect x="814" y="2250" width="154" height="154" fill="#00B050"/><rect x="968" y="2250" width="154" height="154" fill="#00C459"/><rect x="1122" y="2250" width="154" height="154" fill="#00B050"/><rect x="1276" y="2250" width="154" height="154" fill="#00C459"/><rect x="1430" y="2250" width="154" height="154" fill="#00B050"/><rect x="1584" y="2250" width="154" height="154" fill="#00C459"/><rect x="1738" y="2250" width="154" height="154" fill="#00B050"/><rect x="1892" y="2250" width="154" height="154" fill="#00C459"/><rect x="2046" y="2250" width="154" height="154" fill="#00B050"/><rect x="2200" y="2250" width="154" height="154" fill="#00C459"/><rect x="2200" y="2404" width="154" height="154" fill="#00B050"/><rect x="198" y="2404" width="154" height="154" fill="#00C459"/><rect x="352" y="2404" width="154" height="154" fill="#00B050"/><rect x="506" y="2404" width="154" height="154" fill="#00C459"/><rect x="660" y="2404" width="154" height="154" fill="#00B050"/><rect x="814" y="2404" width="154" height="154" fill="#00C459"/><rect x="968" y="2404" width="154" height="154" fill="#00B050"/><rect x="1122" y="2404" width="154" height="154" fill="#00C459"/><rect x="1276" y="2404" width="154" height="154" fill="#00B050"/><rect x="1430" y="2404" width="154" height="154" fill="#00C459"/><rect x="1584" y="2404" width="154" height="154" fill="#00B050"/><rect x="1738" y="2404" width="154" height="154" fill="#00C459"/><rect x="1892" y="2404" width="154" height="154" fill="#00B050"/><rect x="2046" y="2404" width="154" height="154" fill="#00C459"/><rect x="198" y="2558" width="154" height="154" fill="#00B050"/><rect x="352" y="2558" width="154" height="154" fill="#00C459"/><rect x="506" y="2558" width="154" height="154" fill="#00B050"/><rect x="660" y="2558" width="154" height="154" fill="#00C459"/><rect x="814" y="2558" width="154" height="154" fill="#00B050"/><rect x="968" y="2558" width="154" height="154" fill="#00C459"/><rect x="1122" y="2558" width="154" height="154" fill="#00B050"/><rect x="1276" y="2558" width="154" height="154" fill="#00C459"/><rect x="1430" y="2558" width="154" height="154" fill="#00B050"/><rect x="1584" y="2558" width="154" height="154" fill="#00C459"/><rect x="1738" y="2558" width="154" height="154" fill="#00B050"/><rect x="1892" y="2558" width="154" height="154" fill="#00C459"/><rect x="2046" y="2558" width="154" height="154" fill="#00B050"/><rect x="2200" y="2558" width="154" height="154" fill="#00C459"/><rect x="2200" y="2712" width="154" height="154" fill="#00B050"/><rect x="198" y="2712" width="154" height="154" fill="#00C459"/><rect x="352" y="2712" width="154" height="154" fill="#00B050"/><rect x="506" y="2712" width="154" height="154" fill="#00C459"/><rect x="660" y="2712" width="154" height="154" fill="#00B050"/><rect x="814" y="2712" width="154" height="154" fill="#00C459"/><rect x="968" y="2712" width="154" height="154" fill="#00B050"/><rect x="1122" y="2712" width="154" height="154" fill="#00C459"/><rect x="1276" y="2712" width="154" height="154" fill="#00B050"/><rect x="1430" y="2712" width="154" height="154" fill="#00C459"/><rect x="1584" y="2712" width="154" height="154" fill="#00B050"/><rect x="1738" y="2712" width="154" height="154" fill="#00C459"/><rect x="1892" y="2712" width="154" height="154" fill="#00B050"/><rect x="2046" y="2712" width="154" height="154" fill="#00C459"/></g></svg>