<svg width="1724" height="1708" xmlns="http://www.w3.org/2000/svg" xmlns:xlink="http://www.w3.org/1999/xlink" xml:space="preserve" overflow="hidden"><defs><clipPath id="clip0"><rect x="312" y="497" width="1724" height="1708"/></clipPath></defs><g clip-path="url(#clip0)" transform="translate(-312 -497)"><rect x="1913" y="620" width="123" height="123" fill="#00E266"/><rect x="313" y="620" width="123" height="123" fill="#00CC5C"/><rect x="436" y="620" width="123" height="123" fill="#00E266"/><rect x="559" y="620" width="123" height="123" fill="#00CC5C"/><rect x="682" y="620" width="123" height="123" fill="#00E266"/><rect x="805" y="620" width="123" height="123" fill="#00CC5C"/><rect x="928" y="620" width="124" height="123" fill="#00E266"/><rect x="1052" y="620" width="123" height="123" fill="#00CC5C"/><rect x="1175" y="620" width="123" height="123" fill="#00E266"/><rect x="1298" y="620" width="123" height="123" fill="#00CC5C"/><rect x="1421" y="620" width="123" height="123" fill="#00E266"/><rect x="1544" y="620" width="123" height="123" fill="#00CC5C"/><rect x="1667" y="620" width="123" height="123" fill="#00E266"/><rect x="1790" y="620" width="123" height="123" fill="#00CC5C"/><path d="M682 743 743.5 620 805 743Z" fill="#00CC5C" fill-rule="evenodd"/><path d="M436 743 497.5 620 559 743Z" fill="#00CC5C" fill-rule="evenodd"/><path d="M313 743 374.5 620 436 743Z" fill="#00E266" fill-rule="evenodd"/><path d="M559 743 620.5 620 682 743Z" fill="#00E266" fill-rule="evenodd"/><path d="M805 743 866.5 620 928 743Z" fill="#00E266" fill-rule="evenodd"/><path d="M1052 743 1113.5 620 1175 743Z" fill="#00E266" fill-rule="evenodd"/><path d="M1298 743 1359.5 620 1421 743Z" fill="#00E266" fill-rule="evenodd"/><path d="M1544 743 1605.5 620 1667 743Z" fill="#00E266" fill-rule="evenodd"/><path d="M1790 743 1851.5 620 1913 743Z" fill="#00E266" fill-rule="evenodd"/><path d="M928 743 990 620 1052 743Z" fill="#00CC5C" fill-rule="evenodd"/><path d="M1175 743 1236.5 620 1298 743Z" fill="#00CC5C" fill-rule="evenodd"/><path d="M1421 743 1482.5 620 1544 743Z" fill="#00CC5C" fill-rule="evenodd"/><path d="M1667 743 1728.5 620 1790 743Z" fill="#00CC5C" fill-rule="evenodd"/><path d="M1913 743 1974.5 620 2036 743Z" fill="#00CC5C" fill-rule="evenodd"/><rect x="313" y="497" width="123" height="123" fill="#00E266"/><rect x="1913" y="497" width="123" height="123" fill="#00CC5C"/><rect x="1790" y="497" width="123" height="123" fill="#00E266"/><rect x="1667" y="497" width="123" height="123" fill="#00CC5C"/><rect x="1544" y="497" width="123" height="123" fill="#00E266"/><rect x="1421" y="497" width="123" height="123" fill="#00CC5C"/><rect x="1298" y="497" width="123" height="123" fill="#00E266"/><rect x="1175" y="497" width="123" height="123" fill="#00CC5C"/><rect x="1052" y="497" width="123" height="123" fill="#00E266"/><rect x="928" y="497" width="124" height="123" fill="#00CC5C"/><rect x="805" y="497" width="123" height="123" fill="#00E266"/><rect x="682" y="497" width="123" height="123" fill="#00CC5C"/><rect x="559" y="497" width="123" height="123" fill="#00E266"/><rect x="436" y="497" width="123" height="123" fill="#00CC5C"/><path d="M1667 497 1605.5 620 1544 497Z" fill="#00CC5C" fill-rule="evenodd"/><path d="M1913 497 1851.5 620 1790 497Z" fill="#00CC5C" fill-rule="evenodd"/><path d="M2036 497 1974.5 620 1913 497Z" fill="#00E266" fill-rule="evenodd"/><path d="M1790 497 1728.5 620 1667 497Z" fill="#00E266" fill-rule="evenodd"/><path d="M1544 497 1482.5 620 1421 497Z" fill="#00E266" fill-rule="evenodd"/><path d="M1298 497 1236.5 620 1175 497Z" fill="#00E266" fill-rule="evenodd"/><path d="M1052 497 990 620 928 497Z" fill="#00E266" fill-rule="evenodd"/><path d="M805 497 743.5 620 682 497Z" fill="#00E266" fill-rule="evenodd"/><path d="M559 497 497.5 620 436 497Z" fill="#00E266" fill-rule="evenodd"/><path d="M1421 497 1359.5 620 1298 497Z" fill="#00CC5C" fill-rule="evenodd"/><path d="M1175 497 1113.5 620 1052 497Z" fill="#00CC5C" fill-rule="evenodd"/><path d="M928 497 866.5 620 805 497Z" fill="#00CC5C" fill-rule="evenodd"/><path d="M682 497 620.5 620 559 497Z" fill="#00CC5C" fill-rule="evenodd"/><path d="M436 497 374.5 620 313 497Z" fill="#00CC5C" fill-rule="evenodd"/><rect x="1913" y="866" width="123" height="123" fill="#00E266"/><rect x="313" y="866" width="123" height="123" fill="#00CC5C"/><rect x="436" y="866" width="123" height="123" fill="#00E266"/><rect x="559" y="866" width="123" height="123" fill="#00CC5C"/><rect x="682" y="866" width="123" height="123" fill="#00E266"/><rect x="805" y="866" width="123" height="123" fill="#00CC5C"/><rect x="928" y="866" width="124" height="123" fill="#00E266"/><rect x="1052" y="866" width="123" height="123" fill="#00CC5C"/><rect x="1175" y="866" width="123" height="123" fill="#00E266"/><rect x="1298" y="866" width="123" height="123" fill="#00CC5C"/><rect x="1421" y="866" width="123" height="123" fill="#00E266"/><rect x="1544" y="866" width="123" height="123" fill="#00CC5C"/><rect x="1667" y="866" width="123" height="123" fill="#00E266"/><rect x="1790" y="866" width="123" height="123" fill="#00CC5C"/><path d="M682 989 743.5 866 805 989Z" fill="#00CC5C" fill-rule="evenodd"/><path d="M436 989 497.5 866 559 989Z" fill="#00CC5C" fill-rule="evenodd"/><path d="M313 989 374.5 866 436 989Z" fill="#00E266" fill-rule="evenodd"/><path d="M559 989 620.5 866 682 989Z" fill="#00E266" fill-rule="evenodd"/><path d="M805 989 866.5 866 928 989Z" fill="#00E266" fill-rule="evenodd"/><path d="M1052 989 1113.5 866 1175 989Z" fill="#00E266" fill-rule="evenodd"/><path d="M1298 989 1359.5 866 1421 989Z" fill="#00E266" fill-rule="evenodd"/><path d="M1544 989 1605.5 866 1667 989Z" fill="#00E266" fill-rule="evenodd"/><path d="M1790 989 1851.5 866 1913 989Z" fill="#00E266" fill-rule="evenodd"/><path d="M928 989 990 866 1052 989Z" fill="#00CC5C" fill-rule="evenodd"/><path d="M1175 989 1236.5 866 1298 989Z" fill="#00CC5C" fill-rule="evenodd"/><path d="M1421 989 1482.5 866 1544 989Z" fill="#00CC5C" fill-rule="evenodd"/><path d="M1667 989 1728.5 866 1790 989Z" fill="#00CC5C" fill-rule="evenodd"/><path d="M1913 989 1974.5 866 2036 989Z" fill="#00CC5C" fill-rule="evenodd"/><rect x="0" y="0" width="123" height="123" fill="#00E266" transform="matrix(1 0 0 -1 1790 866)"/><rect x="0" y="0" width="123" height="123" fill="#00CC5C" transform="matrix(1 0 0 -1 1913 866)"/><rect x="0" y="0" width="123" height="123" fill="#00E266" transform="matrix(1 0 0 -1 313 866)"/><rect x="0" y="0" width="123" height="123" fill="#00CC5C" transform="matrix(1 0 0 -1 436 866)"/><rect x="0" y="0" width="123" height="123" fill="#00E266" transform="matrix(1 0 0 -1 559 866)"/><rect x="0" y="0" width="123" height="123" fill="#00CC5C" transform="matrix(1 0 0 -1 682 866)"/><rect x="0" y="0" width="123" height="123" fill="#00E266" transform="matrix(1 0 0 -1 805 866)"/><rect x="0" y="0" width="124" height="123" fill="#00CC5C" transform="matrix(1 0 0 -1 928 866)"/><rect x="0" y="0" width="123" height="123" fill="#00E266" transform="matrix(1 0 0 -1 1052 866)"/><rect x="0" y="0" width="123" height="123" fill="#00CC5C" transform="matrix(1 0 0 -1 1175 866)"/><rect x="0" y="0" width="123" height="123" fill="#00E266" transform="matrix(1 0 0 -1 1298 866)"/><rect x="0" y="0" width="123" height="123" fill="#00CC5C" transform="matrix(1 0 0 -1 1421 866)"/><rect x="0" y="0" width="123" height="123" fill="#00E266" transform="matrix(1 0 0 -1 1544 866)"/><rect x="0" y="0" width="123" height="123" fill="#00CC5C" transform="matrix(1 0 0 -1 1667 866)"/><path d="M0 123 61.5 0 123 123Z" fill="#00CC5C" fill-rule="evenodd" transform="matrix(1 0 0 -1 618 869)"/><path d="M0 123 61.4999 0 123 123Z" fill="#00CC5C" fill-rule="evenodd" transform="matrix(1 0 0 -1 313 866)"/><path d="M0 123 61.5 0 123 123Z" fill="#00E266" fill-rule="evenodd" transform="matrix(1 0 0 -1 1913 866)"/><path d="M0 123 61.5 0 123 123Z" fill="#00E266" fill-rule="evenodd" transform="matrix(1 0 0 -1 436 866)"/><path d="M0 123 61.5 0 123 123Z" fill="#00E266" fill-rule="evenodd" transform="matrix(1 0 0 -1 682 866)"/><path d="M0 123 61.9999 0 124 123Z" fill="#00E266" fill-rule="evenodd" transform="matrix(1 0 0 -1 928 866)"/><path d="M0 123 61.5 0 123 123Z" fill="#00E266" fill-rule="evenodd" transform="matrix(1 0 0 -1 1175 866)"/><path d="M0 123 61.5 0 123 123Z" fill="#00E266" fill-rule="evenodd" transform="matrix(1 0 0 -1 1421 866)"/><path d="M0 123 61.5 0 123 123Z" fill="#00E266" fill-rule="evenodd" transform="matrix(1 0 0 -1 1667 866)"/><path d="M0 123 61.5 0 123 123Z" fill="#00CC5C" fill-rule="evenodd" transform="matrix(1 0 0 -1 805 866)"/><path d="M0 123 61.5 0 123 123Z" fill="#00CC5C" fill-rule="evenodd" transform="matrix(1 0 0 -1 1052 866)"/><path d="M0 123 61.5 0 123 123Z" fill="#00CC5C" fill-rule="evenodd" transform="matrix(1 0 0 -1 1298 866)"/><path d="M0 123 61.4999 0 123 123Z" fill="#00CC5C" fill-rule="evenodd" transform="matrix(1 0 0 -1 1544 866)"/><path d="M0 123 61.5 0 123 123Z" fill="#00CC5C" fill-rule="evenodd" transform="matrix(1 0 0 -1 1790 866)"/><rect x="1911" y="1099" width="123" height="123" fill="#00E266"/><rect x="312" y="1099" width="123" height="123" fill="#00CC5C"/><rect x="435" y="1099" width="123" height="123" fill="#00E266"/><rect x="558" y="1099" width="123" height="123" fill="#00CC5C"/><rect x="681" y="1099" width="123" height="123" fill="#00E266"/><rect x="804" y="1099" width="123" height="123" fill="#00CC5C"/><rect x="927" y="1099" width="123" height="123" fill="#00E266"/><rect x="1050" y="1099" width="123" height="123" fill="#00CC5C"/><rect x="1173" y="1099" width="123" height="123" fill="#00E266"/><rect x="1296" y="1099" width="123" height="123" fill="#00CC5C"/><rect x="1419" y="1099" width="123" height="123" fill="#00E266"/><rect x="1542" y="1099" width="123" height="123" fill="#00CC5C"/><rect x="1665" y="1099" width="123" height="123" fill="#00E266"/><rect x="1788" y="1099" width="123" height="123" fill="#00CC5C"/><path d="M681 1222 742.5 1099 804 1222Z" fill="#00CC5C" fill-rule="evenodd"/><path d="M435 1222 496.5 1099 558 1222Z" fill="#00CC5C" fill-rule="evenodd"/><path d="M312 1222 373.5 1099 435 1222Z" fill="#00E266" fill-rule="evenodd"/><path d="M558 1222 619.5 1099 681 1222Z" fill="#00E266" fill-rule="evenodd"/><path d="M804 1222 865.5 1099 927 1222Z" fill="#00E266" fill-rule="evenodd"/><path d="M1050 1222 1111.5 1099 1173 1222Z" fill="#00E266" fill-rule="evenodd"/><path d="M1296 1222 1357.5 1099 1419 1222Z" fill="#00E266" fill-rule="evenodd"/><path d="M1542 1222 1603.5 1099 1665 1222Z" fill="#00E266" fill-rule="evenodd"/><path d="M1788 1222 1849.5 1099 1911 1222Z" fill="#00E266" fill-rule="evenodd"/><path d="M927 1222 988.5 1099 1050 1222Z" fill="#00CC5C" fill-rule="evenodd"/><path d="M1173 1222 1234.5 1099 1296 1222Z" fill="#00CC5C" fill-rule="evenodd"/><path d="M1419 1222 1480.5 1099 1542 1222Z" fill="#00CC5C" fill-rule="evenodd"/><path d="M1665 1222 1726.5 1099 1788 1222Z" fill="#00CC5C" fill-rule="evenodd"/><path d="M1911 1222 1972.5 1099 2034 1222Z" fill="#00CC5C" fill-rule="evenodd"/><rect x="312" y="976" width="123" height="123" fill="#00E266"/><rect x="1911" y="976" width="123" height="123" fill="#00CC5C"/><rect x="1788" y="976" width="123" height="123" fill="#00E266"/><rect x="1665" y="976" width="123" height="123" fill="#00CC5C"/><rect x="1542" y="976" width="123" height="123" fill="#00E266"/><rect x="1419" y="976" width="123" height="123" fill="#00CC5C"/><rect x="1296" y="976" width="123" height="123" fill="#00E266"/><rect x="1173" y="976" width="123" height="123" fill="#00CC5C"/><rect x="1050" y="976" width="123" height="123" fill="#00E266"/><rect x="927" y="976" width="123" height="123" fill="#00CC5C"/><rect x="804" y="976" width="123" height="123" fill="#00E266"/><rect x="681" y="976" width="123" height="123" fill="#00CC5C"/><rect x="558" y="976" width="123" height="123" fill="#00E266"/><rect x="435" y="976" width="123" height="123" fill="#00CC5C"/><path d="M1665 976 1603.5 1099 1542 976Z" fill="#00CC5C" fill-rule="evenodd"/><path d="M1911 976 1849.5 1099 1788 976Z" fill="#00CC5C" fill-rule="evenodd"/><path d="M2034 976 1972.5 1099 1911 976Z" fill="#00E266" fill-rule="evenodd"/><path d="M1788 976 1726.5 1099 1665 976Z" fill="#00E266" fill-rule="evenodd"/><path d="M1542 976 1480.5 1099 1419 976Z" fill="#00E266" fill-rule="evenodd"/><path d="M1296 976 1234.5 1099 1173 976Z" fill="#00E266" fill-rule="evenodd"/><path d="M1050 976 988.5 1099 927 976Z" fill="#00E266" fill-rule="evenodd"/><path d="M804 976 742.5 1099 681 976Z" fill="#00E266" fill-rule="evenodd"/><path d="M558 976 496.5 1099 435 976Z" fill="#00E266" fill-rule="evenodd"/><path d="M1419 976 1357.5 1099 1296 976Z" fill="#00CC5C" fill-rule="evenodd"/><path d="M1173 976 1111.5 1099 1050 976Z" fill="#00CC5C" fill-rule="evenodd"/><path d="M927 976 865.5 1099 804 976Z" fill="#00CC5C" fill-rule="evenodd"/><path d="M681 976 619.5 1099 558 976Z" fill="#00CC5C" fill-rule="evenodd"/><path d="M435 976 373.5 1099 312 976Z" fill="#00CC5C" fill-rule="evenodd"/><rect x="1911" y="1345" width="123" height="123" fill="#00E266"/><rect x="312" y="1345" width="123" height="123" fill="#00CC5C"/><rect x="435" y="1345" width="123" height="123" fill="#00E266"/><rect x="558" y="1345" width="123" height="123" fill="#00CC5C"/><rect x="681" y="1345" width="123" height="123" fill="#00E266"/><rect x="804" y="1345" width="123" height="123" fill="#00CC5C"/><rect x="927" y="1345" width="123" height="123" fill="#00E266"/><rect x="1050" y="1345" width="123" height="123" fill="#00CC5C"/><rect x="1173" y="1345" width="123" height="123" fill="#00E266"/><rect x="1296" y="1345" width="123" height="123" fill="#00CC5C"/><rect x="1419" y="1345" width="123" height="123" fill="#00E266"/><rect x="1542" y="1345" width="123" height="123" fill="#00CC5C"/><rect x="1665" y="1345" width="123" height="123" fill="#00E266"/><rect x="1788" y="1345" width="123" height="123" fill="#00CC5C"/><path d="M681 1468 742.5 1345 804 1468Z" fill="#00CC5C" fill-rule="evenodd"/><path d="M435 1468 496.5 1345 558 1468Z" fill="#00CC5C" fill-rule="evenodd"/><path d="M312 1468 373.5 1345 435 1468Z" fill="#00E266" fill-rule="evenodd"/><path d="M558 1468 619.5 1345 681 1468Z" fill="#00E266" fill-rule="evenodd"/><path d="M804 1468 865.5 1345 927 1468Z" fill="#00E266" fill-rule="evenodd"/><path d="M1050 1468 1111.5 1345 1173 1468Z" fill="#00E266" fill-rule="evenodd"/><path d="M1296 1468 1357.5 1345 1419 1468Z" fill="#00E266" fill-rule="evenodd"/><path d="M1542 1468 1603.5 1345 1665 1468Z" fill="#00E266" fill-rule="evenodd"/><path d="M1788 1468 1849.5 1345 1911 1468Z" fill="#00E266" fill-rule="evenodd"/><path d="M927 1468 988.5 1345 1050 1468Z" fill="#00CC5C" fill-rule="evenodd"/><path d="M1173 1468 1234.5 1345 1296 1468Z" fill="#00CC5C" fill-rule="evenodd"/><path d="M1419 1468 1480.5 1345 1542 1468Z" fill="#00CC5C" fill-rule="evenodd"/><path d="M1665 1468 1726.5 1345 1788 1468Z" fill="#00CC5C" fill-rule="evenodd"/><path d="M1911 1468 1972.5 1345 2034 1468Z" fill="#00CC5C" fill-rule="evenodd"/><rect x="0" y="0" width="123" height="123" fill="#00E266" transform="matrix(1 0 0 -1 1788 1345)"/><rect x="0" y="0" width="123" height="123" fill="#00CC5C" transform="matrix(1 0 0 -1 1911 1345)"/><rect x="0" y="0" width="123" height="123" fill="#00E266" transform="matrix(1 0 0 -1 312 1345)"/><rect x="0" y="0" width="123" height="123" fill="#00CC5C" transform="matrix(1 0 0 -1 435 1345)"/><rect x="0" y="0" width="123" height="123" fill="#00E266" transform="matrix(1 0 0 -1 558 1345)"/><rect x="0" y="0" width="123" height="123" fill="#00CC5C" transform="matrix(1 0 0 -1 681 1345)"/><rect x="0" y="0" width="123" height="123" fill="#00E266" transform="matrix(1 0 0 -1 804 1345)"/><rect x="0" y="0" width="123" height="123" fill="#00CC5C" transform="matrix(1 0 0 -1 927 1345)"/><rect x="0" y="0" width="123" height="123" fill="#00E266" transform="matrix(1 0 0 -1 1050 1345)"/><rect x="0" y="0" width="123" height="123" fill="#00CC5C" transform="matrix(1 0 0 -1 1173 1345)"/><rect x="0" y="0" width="123" height="123" fill="#00E266" transform="matrix(1 0 0 -1 1296 1345)"/><rect x="0" y="0" width="123" height="123" fill="#00CC5C" transform="matrix(1 0 0 -1 1419 1345)"/><rect x="0" y="0" width="123" height="123" fill="#00E266" transform="matrix(1 0 0 -1 1542 1345)"/><rect x="0" y="0" width="123" height="123" fill="#00CC5C" transform="matrix(1 0 0 -1 1665 1345)"/><path d="M0 123 61.5 0 123 123Z" fill="#00CC5C" fill-rule="evenodd" transform="matrix(1 0 0 -1 558 1345)"/><path d="M0 123 61.4999 0 123 123Z" fill="#00CC5C" fill-rule="evenodd" transform="matrix(1 0 0 -1 312 1345)"/><path d="M0 123 61.5 0 123 123Z" fill="#00E266" fill-rule="evenodd" transform="matrix(1 0 0 -1 1911 1345)"/><path d="M0 123 61.5 0 123 123Z" fill="#00E266" fill-rule="evenodd" transform="matrix(1 0 0 -1 435 1345)"/><path d="M0 123 61.5 0 123 123Z" fill="#00E266" fill-rule="evenodd" transform="matrix(1 0 0 -1 681 1345)"/><path d="M0 123 61.5 0 123 123Z" fill="#00E266" fill-rule="evenodd" transform="matrix(1 0 0 -1 927 1345)"/><path d="M0 123 61.5 0 123 123Z" fill="#00E266" fill-rule="evenodd" transform="matrix(1 0 0 -1 1173 1345)"/><path d="M0 123 61.5 0 123 123Z" fill="#00E266" fill-rule="evenodd" transform="matrix(1 0 0 -1 1419 1345)"/><path d="M0 123 61.4999 0 123 123Z" fill="#00E266" fill-rule="evenodd" transform="matrix(1 0 0 -1 1665 1345)"/><path d="M0 123 61.5 0 123 123Z" fill="#00CC5C" fill-rule="evenodd" transform="matrix(1 0 0 -1 804 1345)"/><path d="M0 123 61.4999 0 123 123Z" fill="#00CC5C" fill-rule="evenodd" transform="matrix(1 0 0 -1 1050 1345)"/><path d="M0 123 61.5 0 123 123Z" fill="#00CC5C" fill-rule="evenodd" transform="matrix(1 0 0 -1 1296 1345)"/><path d="M0 123 61.5 0 123 123Z" fill="#00CC5C" fill-rule="evenodd" transform="matrix(1 0 0 -1 1542 1345)"/><path d="M0 123 61.5 0 123 123Z" fill="#00CC5C" fill-rule="evenodd" transform="matrix(1 0 0 -1 1788 1345)"/><rect x="1911" y="1590" width="123" height="123" fill="#00E266"/><rect x="312" y="1590" width="123" height="123" fill="#00CC5C"/><rect x="435" y="1590" width="123" height="123" fill="#00E266"/><rect x="558" y="1590" width="123" height="123" fill="#00CC5C"/><rect x="681" y="1590" width="123" height="123" fill="#00E266"/><rect x="804" y="1590" width="123" height="123" fill="#00CC5C"/><rect x="927" y="1590" width="123" height="123" fill="#00E266"/><rect x="1050" y="1590" width="123" height="123" fill="#00CC5C"/><rect x="1173" y="1590" width="123" height="123" fill="#00E266"/><rect x="1296" y="1590" width="123" height="123" fill="#00CC5C"/><rect x="1419" y="1590" width="123" height="123" fill="#00E266"/><rect x="1542" y="1590" width="123" height="123" fill="#00CC5C"/><rect x="1665" y="1590" width="123" height="123" fill="#00E266"/><rect x="1788" y="1590" width="123" height="123" fill="#00CC5C"/><path d="M681 1713 742.5 1590 804 1713Z" fill="#00CC5C" fill-rule="evenodd"/><path d="M435 1713 496.5 1590 558 1713Z" fill="#00CC5C" fill-rule="evenodd"/><path d="M312 1713 373.5 1590 435 1713Z" fill="#00E266" fill-rule="evenodd"/><path d="M558 1713 619.5 1590 681 1713Z" fill="#00E266" fill-rule="evenodd"/><path d="M804 1713 865.5 1590 927 1713Z" fill="#00E266" fill-rule="evenodd"/><path d="M1050 1713 1111.5 1590 1173 1713Z" fill="#00E266" fill-rule="evenodd"/><path d="M1296 1713 1357.5 1590 1419 1713Z" fill="#00E266" fill-rule="evenodd"/><path d="M1542 1713 1603.5 1590 1665 1713Z" fill="#00E266" fill-rule="evenodd"/><path d="M1788 1713 1849.5 1590 1911 1713Z" fill="#00E266" fill-rule="evenodd"/><path d="M927 1713 988.5 1590 1050 1713Z" fill="#00CC5C" fill-rule="evenodd"/><path d="M1173 1713 1234.5 1590 1296 1713Z" fill="#00CC5C" fill-rule="evenodd"/><path d="M1419 1713 1480.5 1590 1542 1713Z" fill="#00CC5C" fill-rule="evenodd"/><path d="M1665 1713 1726.5 1590 1788 1713Z" fill="#00CC5C" fill-rule="evenodd"/><path d="M1911 1713 1972.5 1590 2034 1713Z" fill="#00CC5C" fill-rule="evenodd"/><rect x="312" y="1467" width="123" height="123" fill="#00E266"/><rect x="1911" y="1467" width="123" height="123" fill="#00CC5C"/><rect x="1788" y="1467" width="123" height="123" fill="#00E266"/><rect x="1665" y="1467" width="123" height="123" fill="#00CC5C"/><rect x="1542" y="1467" width="123" height="123" fill="#00E266"/><rect x="1419" y="1467" width="123" height="123" fill="#00CC5C"/><rect x="1296" y="1467" width="123" height="123" fill="#00E266"/><rect x="1173" y="1467" width="123" height="123" fill="#00CC5C"/><rect x="1050" y="1467" width="123" height="123" fill="#00E266"/><rect x="927" y="1467" width="123" height="123" fill="#00CC5C"/><rect x="804" y="1467" width="123" height="123" fill="#00E266"/><rect x="681" y="1467" width="123" height="123" fill="#00CC5C"/><rect x="558" y="1467" width="123" height="123" fill="#00E266"/><rect x="435" y="1467" width="123" height="123" fill="#00CC5C"/><path d="M1665 1467 1603.5 1590 1542 1467Z" fill="#00CC5C" fill-rule="evenodd"/><path d="M1911 1467 1849.5 1590 1788 1467Z" fill="#00CC5C" fill-rule="evenodd"/><path d="M2034 1467 1972.5 1590 1911 1467Z" fill="#00E266" fill-rule="evenodd"/><path d="M1788 1467 1726.5 1590 1665 1467Z" fill="#00E266" fill-rule="evenodd"/><path d="M1542 1467 1480.5 1590 1419 1467Z" fill="#00E266" fill-rule="evenodd"/><path d="M1296 1467 1234.5 1590 1173 1467Z" fill="#00E266" fill-rule="evenodd"/><path d="M1050 1467 988.5 1590 927 1467Z" fill="#00E266" fill-rule="evenodd"/><path d="M804 1467 742.5 1590 681 1467Z" fill="#00E266" fill-rule="evenodd"/><path d="M558 1467 496.5 1590 435 1467Z" fill="#00E266" fill-rule="evenodd"/><path d="M1419 1467 1357.5 1590 1296 1467Z" fill="#00CC5C" fill-rule="evenodd"/><path d="M1173 1467 1111.5 1590 1050 1467Z" fill="#00CC5C" fill-rule="evenodd"/><path d="M927 1467 865.5 1590 804 1467Z" fill="#00CC5C" fill-rule="evenodd"/><path d="M681 1467 619.5 1590 558 1467Z" fill="#00CC5C" fill-rule="evenodd"/><path d="M435 1467 373.5 1591 312 1467Z" fill="#00CC5C" fill-rule="evenodd"/><rect x="1911" y="1836" width="123" height="123" fill="#00E266"/><rect x="312" y="1836" width="123" height="123" fill="#00CC5C"/><rect x="435" y="1836" width="123" height="123" fill="#00E266"/><rect x="558" y="1836" width="123" height="123" fill="#00CC5C"/><rect x="681" y="1836" width="123" height="123" fill="#00E266"/><rect x="804" y="1836" width="123" height="123" fill="#00CC5C"/><rect x="927" y="1836" width="123" height="123" fill="#00E266"/><rect x="1050" y="1836" width="123" height="123" fill="#00CC5C"/><rect x="1173" y="1836" width="123" height="123" fill="#00E266"/><rect x="1296" y="1836" width="123" height="123" fill="#00CC5C"/><rect x="1419" y="1836" width="123" height="123" fill="#00E266"/><rect x="1542" y="1836" width="123" height="123" fill="#00CC5C"/><rect x="1665" y="1836" width="123" height="123" fill="#00E266"/><rect x="1788" y="1836" width="123" height="123" fill="#00CC5C"/><path d="M681 1959 742.5 1836 804 1959Z" fill="#00CC5C" fill-rule="evenodd"/><path d="M435 1959 496.5 1836 558 1959Z" fill="#00CC5C" fill-rule="evenodd"/><path d="M312 1959 373.5 1836 435 1959Z" fill="#00E266" fill-rule="evenodd"/><path d="M558 1959 619.5 1836 681 1959Z" fill="#00E266" fill-rule="evenodd"/><path d="M804 1959 865.5 1836 927 1959Z" fill="#00E266" fill-rule="evenodd"/><path d="M1050 1959 1111.5 1836 1173 1959Z" fill="#00E266" fill-rule="evenodd"/><path d="M1296 1959 1357.5 1836 1419 1959Z" fill="#00E266" fill-rule="evenodd"/><path d="M1542 1959 1603.5 1836 1665 1959Z" fill="#00E266" fill-rule="evenodd"/><path d="M1788 1959 1849.5 1836 1911 1959Z" fill="#00E266" fill-rule="evenodd"/><path d="M927 1959 988.5 1836 1050 1959Z" fill="#00CC5C" fill-rule="evenodd"/><path d="M1173 1959 1234.5 1836 1296 1959Z" fill="#00CC5C" fill-rule="evenodd"/><path d="M1419 1959 1480.5 1836 1542 1959Z" fill="#00CC5C" fill-rule="evenodd"/><path d="M1665 1959 1726.5 1836 1788 1959Z" fill="#00CC5C" fill-rule="evenodd"/><path d="M1911 1959 1972.5 1836 2034 1959Z" fill="#00CC5C" fill-rule="evenodd"/><rect x="0" y="0" width="123" height="123" fill="#00E266" transform="matrix(1 0 0 -1 1788 1836)"/><rect x="0" y="0" width="123" height="123" fill="#00CC5C" transform="matrix(1 0 0 -1 1911 1836)"/><rect x="0" y="0" width="123" height="123" fill="#00E266" transform="matrix(1 0 0 -1 312 1836)"/><rect x="0" y="0" width="123" height="123" fill="#00CC5C" transform="matrix(1 0 0 -1 435 1836)"/><rect x="0" y="0" width="123" height="123" fill="#00E266" transform="matrix(1 0 0 -1 558 1836)"/><rect x="0" y="0" width="123" height="123" fill="#00CC5C" transform="matrix(1 0 0 -1 681 1836)"/><rect x="0" y="0" width="123" height="123" fill="#00E266" transform="matrix(1 0 0 -1 804 1836)"/><rect x="0" y="0" width="123" height="123" fill="#00CC5C" transform="matrix(1 0 0 -1 927 1836)"/><rect x="0" y="0" width="123" height="123" fill="#00E266" transform="matrix(1 0 0 -1 1050 1836)"/><rect x="0" y="0" width="123" height="123" fill="#00CC5C" transform="matrix(1 0 0 -1 1173 1836)"/><rect x="0" y="0" width="123" height="123" fill="#00E266" transform="matrix(1 0 0 -1 1296 1836)"/><rect x="0" y="0" width="123" height="123" fill="#00CC5C" transform="matrix(1 0 0 -1 1419 1836)"/><rect x="0" y="0" width="123" height="123" fill="#00E266" transform="matrix(1 0 0 -1 1542 1836)"/><rect x="0" y="0" width="123" height="123" fill="#00CC5C" transform="matrix(1 0 0 -1 1665 1836)"/><path d="M0 123 61.5 0 123 123Z" fill="#00CC5C" fill-rule="evenodd" transform="matrix(1 0 0 -1 558 1836)"/><path d="M0 123 61.4999 0 123 123Z" fill="#00CC5C" fill-rule="evenodd" transform="matrix(1 0 0 -1 312 1836)"/><path d="M0 123 61.5 0 123 123Z" fill="#00E266" fill-rule="evenodd" transform="matrix(1 0 0 -1 1911 1836)"/><path d="M0 123 61.5 0 123 123Z" fill="#00E266" fill-rule="evenodd" transform="matrix(1 0 0 -1 435 1836)"/><path d="M0 123 61.5 0 123 123Z" fill="#00E266" fill-rule="evenodd" transform="matrix(1 0 0 -1 681 1836)"/><path d="M0 123 61.5 0 123 123Z" fill="#00E266" fill-rule="evenodd" transform="matrix(1 0 0 -1 927 1836)"/><path d="M0 123 61.5 0 123 123Z" fill="#00E266" fill-rule="evenodd" transform="matrix(1 0 0 -1 1173 1836)"/><path d="M0 123 61.5 0 123 123Z" fill="#00E266" fill-rule="evenodd" transform="matrix(1 0 0 -1 1419 1836)"/><path d="M0 123 61.4999 0 123 123Z" fill="#00E266" fill-rule="evenodd" transform="matrix(1 0 0 -1 1665 1836)"/><path d="M0 123 61.5 0 123 123Z" fill="#00CC5C" fill-rule="evenodd" transform="matrix(1 0 0 -1 804 1836)"/><path d="M0 123 61.4999 0 123 123Z" fill="#00CC5C" fill-rule="evenodd" transform="matrix(1 0 0 -1 1050 1836)"/><path d="M0 123 61.5 0 123 123Z" fill="#00CC5C" fill-rule="evenodd" transform="matrix(1 0 0 -1 1296 1836)"/><path d="M0 123 61.5 0 123 123Z" fill="#00CC5C" fill-rule="evenodd" transform="matrix(1 0 0 -1 1542 1836)"/><path d="M0 123 61.5 0 123 123Z" fill="#00CC5C" fill-rule="evenodd" transform="matrix(1 0 0 -1 1788 1836)"/><rect x="1911" y="2082" width="123" height="123" fill="#00E266"/><rect x="312" y="2082" width="123" height="123" fill="#00CC5C"/><rect x="435" y="2082" width="123" height="123" fill="#00E266"/><rect x="558" y="2082" width="123" height="123" fill="#00CC5C"/><rect x="681" y="2082" width="123" height="123" fill="#00E266"/><rect x="804" y="2082" width="123" height="123" fill="#00CC5C"/><rect x="927" y="2082" width="123" height="123" fill="#00E266"/><rect x="1050" y="2082" width="123" height="123" fill="#00CC5C"/><rect x="1173" y="2082" width="123" height="123" fill="#00E266"/><rect x="1296" y="2082" width="123" height="123" fill="#00CC5C"/><rect x="1419" y="2082" width="123" height="123" fill="#00E266"/><rect x="1542" y="2082" width="123" height="123" fill="#00CC5C"/><rect x="1665" y="2082" width="123" height="123" fill="#00E266"/><rect x="1788" y="2082" width="123" height="123" fill="#00CC5C"/><path d="M681 2205 742.5 2082 804 2205Z" fill="#00CC5C" fill-rule="evenodd"/><path d="M435 2205 496.5 2082 558 2205Z" fill="#00CC5C" fill-rule="evenodd"/><path d="M312 2205 373.5 2082 435 2205Z" fill="#00E266" fill-rule="evenodd"/><path d="M558 2205 619.5 2082 681 2205Z" fill="#00E266" fill-rule="evenodd"/><path d="M804 2205 865.5 2082 927 2205Z" fill="#00E266" fill-rule="evenodd"/><path d="M1050 2205 1111.5 2082 1173 2205Z" fill="#00E266" fill-rule="evenodd"/><path d="M1296 2205 1357.5 2082 1419 2205Z" fill="#00E266" fill-rule="evenodd"/><path d="M1542 2205 1603.5 2082 1665 2205Z" fill="#00E266" fill-rule="evenodd"/><path d="M1788 2205 1849.5 2082 1911 2205Z" fill="#00E266" fill-rule="evenodd"/><path d="M927 2205 988.5 2082 1050 2205Z" fill="#00CC5C" fill-rule="evenodd"/><path d="M1173 2205 1234.5 2082 1296 2205Z" fill="#00CC5C" fill-rule="evenodd"/><path d="M1419 2205 1480.5 2082 1542 2205Z" fill="#00CC5C" fill-rule="evenodd"/><path d="M1665 2205 1726.5 2082 1788 2205Z" fill="#00CC5C" fill-rule="evenodd"/><path d="M1911 2205 1972.5 2082 2034 2205Z" fill="#00CC5C" fill-rule="evenodd"/><rect x="312" y="1959" width="123" height="123" fill="#00E266"/><rect x="1911" y="1959" width="123" height="123" fill="#00CC5C"/><rect x="1788" y="1959" width="123" height="123" fill="#00E266"/><rect x="1665" y="1959" width="123" height="123" fill="#00CC5C"/><rect x="1542" y="1959" width="123" height="123" fill="#00E266"/><rect x="1419" y="1959" width="123" height="123" fill="#00CC5C"/><rect x="1296" y="1959" width="123" height="123" fill="#00E266"/><rect x="1173" y="1959" width="123" height="123" fill="#00CC5C"/><rect x="1050" y="1959" width="123" height="123" fill="#00E266"/><rect x="927" y="1959" width="123" height="123" fill="#00CC5C"/><rect x="804" y="1959" width="123" height="123" fill="#00E266"/><rect x="681" y="1959" width="123" height="123" fill="#00CC5C"/><rect x="558" y="1959" width="123" height="123" fill="#00E266"/><rect x="435" y="1959" width="123" height="123" fill="#00CC5C"/><path d="M1665 1959 1603.5 2082 1542 1959Z" fill="#00CC5C" fill-rule="evenodd"/><path d="M1911 1959 1849.5 2082 1788 1959Z" fill="#00CC5C" fill-rule="evenodd"/><path d="M2034 1959 1972.5 2082 1911 1959Z" fill="#00E266" fill-rule="evenodd"/><path d="M1788 1959 1726.5 2082 1665 1959Z" fill="#00E266" fill-rule="evenodd"/><path d="M1542 1959 1480.5 2082 1419 1959Z" fill="#00E266" fill-rule="evenodd"/><path d="M1296 1959 1234.5 2082 1173 1959Z" fill="#00E266" fill-rule="evenodd"/><path d="M1050 1959 988.5 2082 927 1959Z" fill="#00E266" fill-rule="evenodd"/><path d="M804 1959 742.5 2082 681 1959Z" fill="#00E266" fill-rule="evenodd"/><path d="M558 1959 496.5 2082 435 1959Z" fill="#00E266" fill-rule="evenodd"/><path d="M1419 1959 1357.5 2082 1296 1959Z" fill="#00CC5C" fill-rule="evenodd"/><path d="M1173 1959 1111.5 2082 1050 1959Z" fill="#00CC5C" fill-rule="evenodd"/><path d="M927 1959 865.5 2082 804 1959Z" fill="#00CC5C" fill-rule="evenodd"/><path d="M681 1959 619.5 2082 558 1959Z" fill="#00CC5C" fill-rule="evenodd"/><path d="M435 1959 373.5 2082 312 1959Z" fill="#00CC5C" fill-rule="evenodd"/></g></svg>