<svg width="2301" height="2302" xmlns="http://www.w3.org/2000/svg" xmlns:xlink="http://www.w3.org/1999/xlink" xml:space="preserve" overflow="hidden"><defs><clipPath id="clip0"><rect x="87" y="506" width="2301" height="2302"/></clipPath></defs><g clip-path="url(#clip0)" transform="translate(-87 -506)"><rect x="87" y="506" width="383" height="384" fill="#15FF7F"/><rect x="470" y="506" width="384" height="384" fill="#00E266"/><rect x="854" y="506" width="384" height="384" fill="#15FF7F"/><rect x="1238" y="506" width="383" height="384" fill="#00E266"/><rect x="1621" y="506" width="384" height="384" fill="#15FF7F"/><rect x="2005" y="506" width="383" height="384" fill="#00E266"/><rect x="2005" y="890" width="383" height="383" fill="#15FF7F"/><rect x="87" y="890" width="383" height="383" fill="#00E266"/><rect x="470" y="890" width="384" height="383" fill="#15FF7F"/><rect x="854" y="890" width="384" height="383" fill="#00E266"/><rect x="1238" y="890" width="383" height="383" fill="#15FF7F"/><rect x="1621" y="890" width="384" height="383" fill="#00E266"/><rect x="87" y="1273" width="383" height="384" fill="#15FF7F"/><rect x="470" y="1273" width="384" height="384" fill="#00E266"/><rect x="854" y="1273" width="384" height="384" fill="#15FF7F"/><rect x="1238" y="1273" width="383" height="384" fill="#00E266"/><rect x="1621" y="1273" width="384" height="384" fill="#15FF7F"/><rect x="2005" y="1273" width="383" height="384" fill="#00E266"/><rect x="2005" y="1657" width="383" height="384" fill="#15FF7F"/><rect x="87" y="1657" width="383" height="384" fill="#00E266"/><rect x="470" y="1657" width="384" height="384" fill="#15FF7F"/><rect x="854" y="1657" width="384" height="384" fill="#00E266"/><rect x="1238" y="1657" width="383" height="384" fill="#15FF7F"/><rect x="1621" y="1657" width="384" height="384" fill="#00E266"/><rect x="87" y="2041" width="383" height="383" fill="#15FF7F"/><rect x="470" y="2041" width="384" height="383" fill="#00E266"/><rect x="854" y="2041" width="384" height="383" fill="#15FF7F"/><rect x="1238" y="2041" width="383" height="383" fill="#00E266"/><rect x="1621" y="2041" width="384" height="383" fill="#15FF7F"/><rect x="2005" y="2041" width="383" height="383" fill="#00E266"/><rect x="2005" y="2424" width="383" height="384" fill="#15FF7F"/><rect x="87" y="2424" width="383" height="384" fill="#00E266"/><rect x="470" y="2424" width="384" height="384" fill="#15FF7F"/><rect x="854" y="2424" width="384" height="384" fill="#00E266"/><rect x="1238" y="2424" width="383" height="384" fill="#15FF7F"/><rect x="1621" y="2424" width="384" height="384" fill="#00E266"/></g></svg>